<svg xmlns="http://www.w3.org/2000/svg" xmlns:xlink="http://www.w3.org/1999/xlink" width="1760" height="1360"><g transform="translate(0 0)"><path d="M0 0h1760v1360H0z" fill="#fff"/><path d="M387 806h133v214H160V780h216zm-227 0h227" stroke="#000" stroke-width="2" fill="#fff"/><use xlink:href="#a" transform="matrix(1,0,0,1,168,780) translate(0 16.6)"/><path d="M1467 806h133v214h-360V780h216zm-227 0h227" stroke="#000" stroke-width="2" fill="#fff"/><use xlink:href="#b" transform="matrix(1,0,0,1,1248,780) translate(0 16.6)"/><path d="M927 526h133v214H700V500h216zm-227 0h227" stroke="#000" stroke-width="2" fill="#fff"/><use xlink:href="#c" transform="matrix(1,0,0,1,708,500) translate(0 16.6)"/><path d="M520 960h719" stroke="#000" stroke-width="2" fill="none"/><path d="M537.72 950.68L521.96 960l15.76 9.32-1 1.72-16.72-9.88v-2.32l16.7-9.88zM1240 961h-1v-2h1z"/><path d="M520 900h719" fill="none"/><path d="M520 900h10m9.97 0h19.97m10 0h19.96m10 0h19.96m10 0h19.96m10 0h19.96m9.98 0h19.98m9.98 0h19.97m9.98 0h19.97m10 0h19.96m10 0h19.97m10 0h19.96m9.98 0h20m9.97 0h19.97m10 0h19.96m10 0h19.96m10 0h19.96m10 0h19.96m9.98 0h19.98m9.98 0h19.97m9.98 0h19.97m10 0h19.96m10 0h19.97m10 0h19.96m9.98 0h10" stroke="#000" stroke-width="2" fill="none"/><path d="M1240 899.43v1.14l-17.7 10.47-1.02-1.72 15.76-9.32-15.76-9.32 1-1.72z"/><path d="M800 100h160v120H800z" stroke="#000" stroke-width="2" fill="#fff"/><use xlink:href="#d" transform="matrix(1,0,0,1,808,108) translate(2.625 55.6)"/><path d="M800 160H326.5v619" stroke="#000" stroke-width="2" fill="none"/><path d="M326.5 779l-4.65-14.27h9.27z"/><path d="M327.2 780h-1.44l-5.28-16.27h12.02zm-3.97-14.27l3.26 10.03 3.25-10.03z"/><path d="M880 220v279" stroke="#000" stroke-width="2" fill="none"/><path d="M880 499l-4.64-14.27h9.28z"/><path d="M880.73 500h-1.46L874 483.73h12zm-4-14.27l3.27 10.03 3.26-10.03z"/><path d="M960 160h461.25v619" stroke="#000" stroke-width="2" fill="none"/><path d="M1421.25 779l-4.63-14.27h9.27z"/><path d="M1421.98 780h-1.45l-5.3-16.27h12.04zm-4-14.27l3.27 10.03 3.26-10.03z"/><defs><path d="M96-169c-40 0-48 33-48 73s9 75 48 75c24 0 41-14 43-38l32 2c-6 37-31 61-74 61-59 0-76-41-82-99-10-93 101-131 147-64 4 7 5 14 7 22l-32 3c-4-21-16-35-41-35" id="e"/><path d="M141-36C126-15 110 5 73 4 37 3 15-17 15-53c-1-64 63-63 125-63 3-35-9-54-41-54-24 1-41 7-42 31l-33-3c5-37 33-52 76-52 45 0 72 20 72 64v82c-1 20 7 32 28 27v20c-31 9-61-2-59-35zM48-53c0 20 12 33 32 33 41-3 63-29 60-74-43 2-92-5-92 41" id="f"/><path d="M59-47c-2 24 18 29 38 22v24C64 9 27 4 27-40v-127H5v-23h24l9-43h21v43h35v23H59v120" id="g"/><path d="M100-194c63 0 86 42 84 106H49c0 40 14 67 53 68 26 1 43-12 49-29l28 8c-11 28-37 45-77 45C44 4 14-33 15-96c1-61 26-98 85-98zm52 81c6-60-76-77-97-28-3 7-6 17-6 28h103" id="h"/><path d="M177-190C167-65 218 103 67 71c-23-6-38-20-44-43l32-5c15 47 100 32 89-28v-30C133-14 115 1 83 1 29 1 15-40 15-95c0-56 16-97 71-98 29-1 48 16 59 35 1-10 0-23 2-32h30zM94-22c36 0 50-32 50-73 0-42-14-75-50-75-39 0-46 34-46 75s6 73 46 73" id="i"/><path d="M100-194c62-1 85 37 85 99 1 63-27 99-86 99S16-35 15-95c0-66 28-99 85-99zM99-20c44 1 53-31 53-75 0-43-8-75-51-75s-53 32-53 75 10 74 51 75" id="j"/><path d="M114-163C36-179 61-72 57 0H25l-1-190h30c1 12-1 29 2 39 6-27 23-49 58-41v29" id="k"/><path d="M179-190L93 31C79 59 56 82 12 73V49c39 6 53-20 64-50L1-190h34L92-34l54-156h33" id="l"/><path d="M24 0v-261h32V0H24" id="m"/><path d="M24-231v-30h32v30H24zM24 0v-190h32V0H24" id="n"/><path d="M135-143c-3-34-86-38-87 0 15 53 115 12 119 90S17 21 10-45l28-5c4 36 97 45 98 0-10-56-113-15-118-90-4-57 82-63 122-42 12 7 21 19 24 35" id="o"/><g id="a"><use transform="matrix(0.05,0,0,0.05,0,0)" xlink:href="#e"/><use transform="matrix(0.05,0,0,0.05,9,0)" xlink:href="#f"/><use transform="matrix(0.05,0,0,0.05,19,0)" xlink:href="#g"/><use transform="matrix(0.05,0,0,0.05,24,0)" xlink:href="#h"/><use transform="matrix(0.05,0,0,0.05,34,0)" xlink:href="#i"/><use transform="matrix(0.05,0,0,0.05,44,0)" xlink:href="#j"/><use transform="matrix(0.05,0,0,0.05,54,0)" xlink:href="#k"/><use transform="matrix(0.05,0,0,0.05,59.95,0)" xlink:href="#l"/><use transform="matrix(0.05,0,0,0.05,68.95,0)" xlink:href="#m"/><use transform="matrix(0.05,0,0,0.05,72.9,0)" xlink:href="#n"/><use transform="matrix(0.05,0,0,0.05,76.85000000000001,0)" xlink:href="#o"/><use transform="matrix(0.05,0,0,0.05,85.85000000000001,0)" xlink:href="#g"/></g><path d="M85-194c31 0 48 13 60 33l-1-100h32l1 261h-30c-2-10 0-23-3-31C134-8 116 4 85 4 32 4 16-35 15-94c0-66 23-100 70-100zm9 24c-40 0-46 34-46 75 0 40 6 74 45 74 42 0 51-32 51-76 0-42-9-74-50-73" id="p"/><g id="b"><use transform="matrix(0.05,0,0,0.05,0,0)" xlink:href="#g"/><use transform="matrix(0.05,0,0,0.05,5,0)" xlink:href="#j"/><use transform="matrix(0.05,0,0,0.05,15,0)" xlink:href="#p"/><use transform="matrix(0.05,0,0,0.05,25,0)" xlink:href="#j"/><use transform="matrix(0.05,0,0,0.05,35,0)" xlink:href="#m"/><use transform="matrix(0.05,0,0,0.05,38.95,0)" xlink:href="#n"/><use transform="matrix(0.05,0,0,0.05,42.900000000000006,0)" xlink:href="#o"/><use transform="matrix(0.05,0,0,0.05,51.900000000000006,0)" xlink:href="#g"/></g><g id="c"><use transform="matrix(0.05,0,0,0.05,0,0)" xlink:href="#o"/><use transform="matrix(0.05,0,0,0.05,9,0)" xlink:href="#g"/><use transform="matrix(0.05,0,0,0.05,14,0)" xlink:href="#f"/><use transform="matrix(0.05,0,0,0.05,24,0)" xlink:href="#g"/><use transform="matrix(0.05,0,0,0.05,29,0)" xlink:href="#n"/><use transform="matrix(0.05,0,0,0.05,32.95,0)" xlink:href="#o"/><use transform="matrix(0.05,0,0,0.05,41.95,0)" xlink:href="#g"/><use transform="matrix(0.05,0,0,0.05,46.95,0)" xlink:href="#n"/><use transform="matrix(0.05,0,0,0.05,50.900000000000006,0)" xlink:href="#e"/><use transform="matrix(0.05,0,0,0.05,59.900000000000006,0)" xlink:href="#o"/></g><path d="M127-220V0H93v-220H8v-28h204v28h-85" id="q"/><path d="M30-248c118-7 216 8 213 122C240-48 200 0 122 0H30v-248zM63-27c89 8 146-16 146-99s-60-101-146-95v194" id="r"/><path d="M240 0l2-218c-23 76-54 145-80 218h-23L58-218 59 0H30v-248h44l77 211c21-75 51-140 76-211h43V0h-30" id="s"/><path d="M84 4C-5 8 30-112 23-190h32v120c0 31 7 50 39 49 72-2 45-101 50-169h31l1 190h-30c-1-10 1-25-2-33-11 22-28 36-60 37" id="t"/><g id="d"><use transform="matrix(0.05,0,0,0.05,0,0)" xlink:href="#q"/><use transform="matrix(0.05,0,0,0.05,8.950000000000001,0)" xlink:href="#j"/><use transform="matrix(0.05,0,0,0.05,18.950000000000003,0)" xlink:href="#r"/><use transform="matrix(0.05,0,0,0.05,31.900000000000006,0)" xlink:href="#j"/><use transform="matrix(0.05,0,0,0.05,41.900000000000006,0)" xlink:href="#r"/><use transform="matrix(0.05,0,0,0.05,54.85,0)" xlink:href="#f"/><use transform="matrix(0.05,0,0,0.05,64.85000000000001,0)" xlink:href="#g"/><use transform="matrix(0.05,0,0,0.05,69.85000000000001,0)" xlink:href="#f"/><use transform="matrix(0.05,0,0,0.05,79.85000000000001,0)" xlink:href="#s"/><use transform="matrix(0.05,0,0,0.05,94.80000000000001,0)" xlink:href="#j"/><use transform="matrix(0.05,0,0,0.05,104.80000000000001,0)" xlink:href="#p"/><use transform="matrix(0.05,0,0,0.05,114.80000000000001,0)" xlink:href="#t"/><use transform="matrix(0.05,0,0,0.05,124.80000000000001,0)" xlink:href="#m"/><use transform="matrix(0.05,0,0,0.05,128.75,0)" xlink:href="#h"/></g></defs></g></svg>