<svg xmlns="http://www.w3.org/2000/svg" xmlns:xlink="http://www.w3.org/1999/xlink" width="1760" height="1360"><g transform="translate(0 0)"><path d="M0 0h1760v1360H0z" fill="#fff"/><path d="M1000 446h340v494H420V420h552zm-580 0h580" stroke="#000" stroke-width="2" fill="#fff"/><use xlink:href="#a" transform="matrix(1,0,0,1,428,420) translate(0 16.6)"/><path d="M1140 620h160v120h-160z" stroke="#000" stroke-width="2" fill="#fff"/><use xlink:href="#b" transform="matrix(1,0,0,1,1148,628) translate(31.549999999999997 55.6)"/><path d="M851 526h229v354H460V500h372zm-391 0h391" stroke="#000" stroke-width="2" fill="#fff"/><use xlink:href="#c" transform="matrix(1,0,0,1,468,500) translate(0 16.6)"/><path d="M520 540h160v80H520z" stroke="#000" stroke-width="2" fill="#fff"/><use xlink:href="#d" transform="matrix(1,0,0,1,528,548) translate(13.574999999999996 24.799999999999997)"/><use xlink:href="#e" transform="matrix(1,0,0,1,528,548) translate(13.599999999999994 46.4)"/><path d="M820 540h200v80H820z" stroke="#000" stroke-width="2" fill="#fff"/><use xlink:href="#d" transform="matrix(1,0,0,1,828,548) translate(33.574999999999996 24.799999999999997)"/><use xlink:href="#f" transform="matrix(1,0,0,1,828,548) translate(1.1750000000000114 46.4)"/><path d="M500 680h200v120H500z" stroke="#000" stroke-width="2" fill="#fff"/><use xlink:href="#g" transform="matrix(1,0,0,1,508,688) translate(8.125 55.6)"/><path d="M820 680h200v120H820z" stroke="#000" stroke-width="2" fill="#fff"/><use xlink:href="#h" transform="matrix(1,0,0,1,828,688) translate(10.099999999999994 55.6)"/><path d="M820 740H701" fill="none"/><path d="M820 740h-9.92m-9.9 0h-19.85m-9.9 0h-19.85m-9.9 0h-19.85m-9.9 0H701" stroke="#000" stroke-width="2" fill="none"/><path d="M718.72 730.68L702.96 740l15.76 9.32-1 1.72L700 740.57v-1.14l17.7-10.47z"/><path d="M920 680v-60" fill="none"/><path d="M920 680v-10m0-10v-20m0-10v-10" stroke="#000" stroke-width="2" fill="none"/><path d="M924.64 634.27h-9.28L920 620z" fill="#fff"/><path d="M926 635.27h-12l4.95-15.27h2.1zm-9.26-2h6.52L920 623.24z"/><path d="M1140 680h-40v60h-80" fill="none"/><path d="M1140 680h-10m-10 0h-20m0 10v20m0 10v20m-10 0h-20m-10 0h-20m-10 0h-10" stroke="#000" stroke-width="2" fill="none"/><path d="M1037.72 730.68l-15.76 9.32 15.76 9.32-1 1.72-16.72-9.88v-2.32l16.7-9.88z"/><path d="M1140 680h-40v160H600v-40" stroke="#000" stroke-width="2" fill="none"/><path d="M604.64 814.27h-9.28L600 800z"/><path d="M606 815.27h-12l4.95-15.27h2.1zm-9.26-2h6.52L600 803.24z"/><defs><path d="M135-143c-3-34-86-38-87 0 15 53 115 12 119 90S17 21 10-45l28-5c4 36 97 45 98 0-10-56-113-15-118-90-4-57 82-63 122-42 12 7 21 19 24 35" id="i"/><path d="M59-47c-2 24 18 29 38 22v24C64 9 27 4 27-40v-127H5v-23h24l9-43h21v43h35v23H59v120" id="j"/><path d="M141-36C126-15 110 5 73 4 37 3 15-17 15-53c-1-64 63-63 125-63 3-35-9-54-41-54-24 1-41 7-42 31l-33-3c5-37 33-52 76-52 45 0 72 20 72 64v82c-1 20 7 32 28 27v20c-31 9-61-2-59-35zM48-53c0 20 12 33 32 33 41-3 63-29 60-74-43 2-92-5-92 41" id="k"/><path d="M24-231v-30h32v30H24zM24 0v-190h32V0H24" id="l"/><path d="M96-169c-40 0-48 33-48 73s9 75 48 75c24 0 41-14 43-38l32 2c-6 37-31 61-74 61-59 0-76-41-82-99-10-93 101-131 147-64 4 7 5 14 7 22l-32 3c-4-21-16-35-41-35" id="m"/><g id="a"><use transform="matrix(0.05,0,0,0.05,0,0)" xlink:href="#i"/><use transform="matrix(0.05,0,0,0.05,9,0)" xlink:href="#j"/><use transform="matrix(0.05,0,0,0.05,14,0)" xlink:href="#k"/><use transform="matrix(0.05,0,0,0.05,24,0)" xlink:href="#j"/><use transform="matrix(0.05,0,0,0.05,29,0)" xlink:href="#l"/><use transform="matrix(0.05,0,0,0.05,32.95,0)" xlink:href="#i"/><use transform="matrix(0.05,0,0,0.05,41.95,0)" xlink:href="#j"/><use transform="matrix(0.05,0,0,0.05,46.95,0)" xlink:href="#l"/><use transform="matrix(0.05,0,0,0.05,50.900000000000006,0)" xlink:href="#m"/><use transform="matrix(0.05,0,0,0.05,59.900000000000006,0)" xlink:href="#i"/></g><path d="M185-189c-5-48-123-54-124 2 14 75 158 14 163 119 3 78-121 87-175 55-17-10-28-26-33-46l33-7c5 56 141 63 141-1 0-78-155-14-162-118-5-82 145-84 179-34 5 7 8 16 11 25" id="n"/><g id="b"><use transform="matrix(0.05,0,0,0.05,0,0)" xlink:href="#n"/><use transform="matrix(0.05,0,0,0.05,12,0)" xlink:href="#j"/><use transform="matrix(0.05,0,0,0.05,17,0)" xlink:href="#k"/><use transform="matrix(0.05,0,0,0.05,27,0)" xlink:href="#i"/><use transform="matrix(0.05,0,0,0.05,36,0)" xlink:href="#j"/><use transform="matrix(0.05,0,0,0.05,41,0)" xlink:href="#l"/><use transform="matrix(0.05,0,0,0.05,44.95,0)" xlink:href="#i"/><use transform="matrix(0.05,0,0,0.05,53.95,0)" xlink:href="#j"/><use transform="matrix(0.05,0,0,0.05,58.95,0)" xlink:href="#l"/><use transform="matrix(0.05,0,0,0.05,62.900000000000006,0)" xlink:href="#m"/><use transform="matrix(0.05,0,0,0.05,71.9,0)" xlink:href="#i"/></g><path d="M106-169C34-169 62-67 57 0H25v-261h32l-1 103c12-21 28-36 61-36 89 0 53 116 60 194h-32v-121c2-32-8-49-39-48" id="o"/><path d="M100-194c63 0 86 42 84 106H49c0 40 14 67 53 68 26 1 43-12 49-29l28 8c-11 28-37 45-77 45C44 4 14-33 15-96c1-61 26-98 85-98zm52 81c6-60-76-77-97-28-3 7-6 17-6 28h103" id="p"/><path d="M108 0H70L1-190h34L89-25l56-165h34" id="q"/><path d="M210-169c-67 3-38 105-44 169h-31v-121c0-29-5-50-35-48C34-165 62-65 56 0H25l-1-190h30c1 10-1 24 2 32 10-44 99-50 107 0 11-21 27-35 58-36 85-2 47 119 55 194h-31v-121c0-29-5-49-35-48" id="r"/><path d="M117-194c89-4 53 116 60 194h-32v-121c0-31-8-49-39-48C34-167 62-67 57 0H25l-1-190h30c1 10-1 24 2 32 11-22 29-35 61-36" id="s"/><g id="c"><use transform="matrix(0.05,0,0,0.05,0,0)" xlink:href="#k"/><use transform="matrix(0.05,0,0,0.05,10,0)" xlink:href="#m"/><use transform="matrix(0.05,0,0,0.05,19,0)" xlink:href="#o"/><use transform="matrix(0.05,0,0,0.05,29,0)" xlink:href="#l"/><use transform="matrix(0.05,0,0,0.05,32.95,0)" xlink:href="#p"/><use transform="matrix(0.05,0,0,0.05,42.95,0)" xlink:href="#q"/><use transform="matrix(0.05,0,0,0.05,51.95,0)" xlink:href="#p"/><use transform="matrix(0.05,0,0,0.05,61.95,0)" xlink:href="#r"/><use transform="matrix(0.05,0,0,0.05,76.9,0)" xlink:href="#p"/><use transform="matrix(0.05,0,0,0.05,86.9,0)" xlink:href="#s"/><use transform="matrix(0.05,0,0,0.05,96.9,0)" xlink:href="#j"/><use transform="matrix(0.05,0,0,0.05,101.9,0)" xlink:href="#i"/></g><path d="M15-91v-56l181-69v40L49-119l147 57v40" id="t"/><path d="M25-224v-37h50v37H25zM25 0v-190h50V0H25" id="u"/><path d="M135-194c87-1 58 113 63 194h-50c-7-57 23-157-34-157-59 0-34 97-39 157H25l-1-190h47c2 12-1 28 3 38 12-26 28-41 61-42" id="v"/><path d="M115-3C79 11 28 4 28-45v-112H4v-33h27l15-45h31v45h36v33H77v99c-1 23 16 31 38 25v30" id="w"/><path d="M185-48c-13 30-37 53-82 52C43 2 14-33 14-96s30-98 90-98c62 0 83 45 84 108H66c0 31 8 55 39 56 18 0 30-7 34-22zm-45-69c5-46-57-63-70-21-2 6-4 13-4 21h74" id="x"/><path d="M135-150c-39-12-60 13-60 57V0H25l-1-190h47c2 13-1 29 3 40 6-28 27-53 61-41v41" id="y"/><path d="M121-226c-27-7-43 5-38 36h38v33H83V0H34v-157H6v-33h28c-9-59 32-81 87-68v32" id="z"/><path d="M133-34C117-15 103 5 69 4 32 3 11-16 11-54c-1-60 55-63 116-61 1-26-3-47-28-47-18 1-26 9-28 27l-52-2c7-38 36-58 82-57s74 22 75 68l1 82c-1 14 12 18 25 15v27c-30 8-71 5-69-32zm-48 3c29 0 43-24 42-57-32 0-66-3-65 30 0 17 8 27 23 27" id="A"/><path d="M190-63c-7 42-38 67-86 67-59 0-84-38-90-98-12-110 154-137 174-36l-49 2c-2-19-15-32-35-32-30 0-35 28-38 64-6 74 65 87 74 30" id="B"/><path d="M15-22v-40l146-57-146-57v-40l181 69v56" id="C"/><g id="d"><use transform="matrix(0.05,0,0,0.05,0,0)" xlink:href="#t"/><use transform="matrix(0.05,0,0,0.05,10.5,0)" xlink:href="#t"/><use transform="matrix(0.05,0,0,0.05,21,0)" xlink:href="#u"/><use transform="matrix(0.05,0,0,0.05,26,0)" xlink:href="#v"/><use transform="matrix(0.05,0,0,0.05,36.95,0)" xlink:href="#w"/><use transform="matrix(0.05,0,0,0.05,42.900000000000006,0)" xlink:href="#x"/><use transform="matrix(0.05,0,0,0.05,52.900000000000006,0)" xlink:href="#y"/><use transform="matrix(0.05,0,0,0.05,59.900000000000006,0)" xlink:href="#z"/><use transform="matrix(0.05,0,0,0.05,65.85000000000001,0)" xlink:href="#A"/><use transform="matrix(0.05,0,0,0.05,75.85000000000001,0)" xlink:href="#B"/><use transform="matrix(0.05,0,0,0.05,85.85000000000001,0)" xlink:href="#x"/><use transform="matrix(0.05,0,0,0.05,95.85000000000001,0)" xlink:href="#C"/><use transform="matrix(0.05,0,0,0.05,106.35000000000001,0)" xlink:href="#C"/></g><path d="M24 0v-248h52V0H24" id="D"/><path d="M199 0l-22-63H83L61 0H9l90-248h61L250 0h-51zm-33-102l-36-108c-10 38-24 72-36 108h72" id="E"/><path d="M114-157C55-157 80-60 75 0H25v-261h50l-1 109c12-26 28-41 61-42 86-1 58 113 63 194h-50c-7-57 23-157-34-157" id="F"/><path d="M128 0H69L1-190h53L99-40l48-150h52" id="G"/><path d="M220-157c-53 9-28 100-34 157h-49v-107c1-27-5-49-29-50C55-147 81-57 75 0H25l-1-190h47c2 12-1 28 3 38 10-53 101-56 108 0 13-22 24-43 59-42 82 1 51 116 57 194h-49v-107c-1-25-5-48-29-50" id="H"/><g id="e"><use transform="matrix(0.05,0,0,0.05,0,0)" xlink:href="#D"/><use transform="matrix(0.05,0,0,0.05,5,0)" xlink:href="#E"/><use transform="matrix(0.05,0,0,0.05,17.950000000000003,0)" xlink:href="#B"/><use transform="matrix(0.05,0,0,0.05,27.950000000000003,0)" xlink:href="#F"/><use transform="matrix(0.05,0,0,0.05,38.900000000000006,0)" xlink:href="#u"/><use transform="matrix(0.05,0,0,0.05,43.900000000000006,0)" xlink:href="#x"/><use transform="matrix(0.05,0,0,0.05,53.900000000000006,0)" xlink:href="#G"/><use transform="matrix(0.05,0,0,0.05,63.900000000000006,0)" xlink:href="#x"/><use transform="matrix(0.05,0,0,0.05,73.9,0)" xlink:href="#H"/><use transform="matrix(0.05,0,0,0.05,89.9,0)" xlink:href="#x"/><use transform="matrix(0.05,0,0,0.05,99.9,0)" xlink:href="#v"/><use transform="matrix(0.05,0,0,0.05,110.85000000000001,0)" xlink:href="#w"/></g><path d="M76-208v77h127v40H76V0H24v-248h183v40H76" id="I"/><path d="M110-194c64 0 96 36 96 99 0 64-35 99-97 99-61 0-95-36-95-99 0-62 34-99 96-99zm-1 164c35 0 45-28 45-65 0-40-10-65-43-65-34 0-45 26-45 65 0 36 10 65 43 65" id="J"/><path d="M123 10C108 53 80 86 19 72V37c35 8 53-11 59-39L3-190h52l48 148c12-52 28-100 44-148h51" id="K"/><g id="f"><use transform="matrix(0.05,0,0,0.05,0,0)" xlink:href="#D"/><use transform="matrix(0.05,0,0,0.05,5,0)" xlink:href="#E"/><use transform="matrix(0.05,0,0,0.05,17.950000000000003,0)" xlink:href="#B"/><use transform="matrix(0.05,0,0,0.05,27.950000000000003,0)" xlink:href="#F"/><use transform="matrix(0.05,0,0,0.05,38.900000000000006,0)" xlink:href="#u"/><use transform="matrix(0.05,0,0,0.05,43.900000000000006,0)" xlink:href="#x"/><use transform="matrix(0.05,0,0,0.05,53.900000000000006,0)" xlink:href="#G"/><use transform="matrix(0.05,0,0,0.05,63.900000000000006,0)" xlink:href="#x"/><use transform="matrix(0.05,0,0,0.05,73.9,0)" xlink:href="#H"/><use transform="matrix(0.05,0,0,0.05,89.9,0)" xlink:href="#x"/><use transform="matrix(0.05,0,0,0.05,99.9,0)" xlink:href="#v"/><use transform="matrix(0.05,0,0,0.05,110.85000000000001,0)" xlink:href="#w"/><use transform="matrix(0.05,0,0,0.05,116.80000000000001,0)" xlink:href="#I"/><use transform="matrix(0.05,0,0,0.05,127.75,0)" xlink:href="#A"/><use transform="matrix(0.05,0,0,0.05,137.75,0)" xlink:href="#B"/><use transform="matrix(0.05,0,0,0.05,147.75,0)" xlink:href="#w"/><use transform="matrix(0.05,0,0,0.05,153.7,0)" xlink:href="#J"/><use transform="matrix(0.05,0,0,0.05,164.64999999999998,0)" xlink:href="#y"/><use transform="matrix(0.05,0,0,0.05,171.64999999999998,0)" xlink:href="#K"/></g><path d="M190 0L58-211 59 0H30v-248h39L202-35l-2-213h31V0h-41" id="L"/><path d="M84 4C-5 8 30-112 23-190h32v120c0 31 7 50 39 49 72-2 45-101 50-169h31l1 190h-30c-1-10 1-25-2-33-11 22-28 36-60 37" id="M"/><path d="M115-194c53 0 69 39 70 98 0 66-23 100-70 100C84 3 66-7 56-30L54 0H23l1-261h32v101c10-23 28-34 59-34zm-8 174c40 0 45-34 45-75 0-40-5-75-45-74-42 0-51 32-51 76 0 43 10 73 51 73" id="N"/><path d="M114-163C36-179 61-72 57 0H25l-1-190h30c1 12-1 29 2 39 6-27 23-49 58-41v29" id="O"/><path d="M205 0l-28-72H64L36 0H1l101-248h38L239 0h-34zm-38-99l-47-123c-12 45-31 82-46 123h93" id="P"/><g id="g"><use transform="matrix(0.05,0,0,0.05,0,0)" xlink:href="#L"/><use transform="matrix(0.05,0,0,0.05,12.950000000000001,0)" xlink:href="#M"/><use transform="matrix(0.05,0,0,0.05,22.950000000000003,0)" xlink:href="#r"/><use transform="matrix(0.05,0,0,0.05,37.900000000000006,0)" xlink:href="#N"/><use transform="matrix(0.05,0,0,0.05,47.900000000000006,0)" xlink:href="#p"/><use transform="matrix(0.05,0,0,0.05,57.900000000000006,0)" xlink:href="#O"/><use transform="matrix(0.05,0,0,0.05,63.85,0)" xlink:href="#P"/><use transform="matrix(0.05,0,0,0.05,75.85000000000001,0)" xlink:href="#m"/><use transform="matrix(0.05,0,0,0.05,84.85000000000001,0)" xlink:href="#o"/><use transform="matrix(0.05,0,0,0.05,94.85000000000001,0)" xlink:href="#l"/><use transform="matrix(0.05,0,0,0.05,98.80000000000001,0)" xlink:href="#p"/><use transform="matrix(0.05,0,0,0.05,108.80000000000001,0)" xlink:href="#q"/><use transform="matrix(0.05,0,0,0.05,117.80000000000001,0)" xlink:href="#p"/><use transform="matrix(0.05,0,0,0.05,127.80000000000001,0)" xlink:href="#r"/><use transform="matrix(0.05,0,0,0.05,142.75,0)" xlink:href="#p"/><use transform="matrix(0.05,0,0,0.05,152.75,0)" xlink:href="#s"/><use transform="matrix(0.05,0,0,0.05,162.75,0)" xlink:href="#j"/></g><path d="M63-220v92h138v28H63V0H30v-248h175v28H63" id="Q"/><path d="M100-194c62-1 85 37 85 99 1 63-27 99-86 99S16-35 15-95c0-66 28-99 85-99zM99-20c44 1 53-31 53-75 0-43-8-75-51-75s-53 32-53 75 10 74 51 75" id="R"/><path d="M179-190L93 31C79 59 56 82 12 73V49c39 6 53-20 64-50L1-190h34L92-34l54-156h33" id="S"/><g id="h"><use transform="matrix(0.05,0,0,0.05,0,0)" xlink:href="#P"/><use transform="matrix(0.05,0,0,0.05,12,0)" xlink:href="#m"/><use transform="matrix(0.05,0,0,0.05,21,0)" xlink:href="#o"/><use transform="matrix(0.05,0,0,0.05,31,0)" xlink:href="#l"/><use transform="matrix(0.05,0,0,0.05,34.95,0)" xlink:href="#p"/><use transform="matrix(0.05,0,0,0.05,44.95,0)" xlink:href="#q"/><use transform="matrix(0.05,0,0,0.05,53.95,0)" xlink:href="#p"/><use transform="matrix(0.05,0,0,0.05,63.95,0)" xlink:href="#r"/><use transform="matrix(0.05,0,0,0.05,78.9,0)" xlink:href="#p"/><use transform="matrix(0.05,0,0,0.05,88.9,0)" xlink:href="#s"/><use transform="matrix(0.05,0,0,0.05,98.9,0)" xlink:href="#j"/><use transform="matrix(0.05,0,0,0.05,103.9,0)" xlink:href="#Q"/><use transform="matrix(0.05,0,0,0.05,114.85000000000001,0)" xlink:href="#k"/><use transform="matrix(0.05,0,0,0.05,124.85000000000001,0)" xlink:href="#m"/><use transform="matrix(0.05,0,0,0.05,133.85000000000002,0)" xlink:href="#j"/><use transform="matrix(0.05,0,0,0.05,138.85000000000002,0)" xlink:href="#R"/><use transform="matrix(0.05,0,0,0.05,148.85000000000002,0)" xlink:href="#O"/><use transform="matrix(0.05,0,0,0.05,154.8,0)" xlink:href="#S"/></g></defs></g></svg>