<svg xmlns="http://www.w3.org/2000/svg" xmlns:xlink="http://www.w3.org/1999/xlink" width="1760" height="1360"><g transform="translate(1696 0)"><path d="M0 0h1760v1360H0z" fill="#fff"/><path d="M-667 251h475.52v955.44h-1285.56V225.3H-706zm-810.04 0H-667" stroke="#000" stroke-width="2" fill="#fff"/><use xlink:href="#a" transform="matrix(1,0,0,1,-1469.0414201183432,225.28735632183913) translate(0 16.6)"/><path d="M-1042.5 403.68h144.87v89.2h-144.86z" stroke="#000" stroke-width="2" fill="#fff"/><use xlink:href="#b" transform="matrix(1,0,0,1,-1034.4852071005917,411.67816091954023) translate(6.074999999999996 29.799999999999997)"/><use xlink:href="#c" transform="matrix(1,0,0,1,-1034.4852071005917,411.67816091954023) translate(42.2 51.4)"/><path d="M-390.65 403.68h144.85v89.2h-144.85z" stroke="#000" stroke-width="2" fill="#fff"/><use xlink:href="#b" transform="matrix(1,0,0,1,-382.6508875739645,411.67816091954023) translate(6.074999999999996 29.799999999999997)"/><use xlink:href="#d" transform="matrix(1,0,0,1,-382.6508875739645,411.67816091954023) translate(-0.700000000000017 51.4)"/><path d="M-752.78 403.68h144.85v89.2h-144.85z" stroke="#000" stroke-width="2" fill="#fff"/><use xlink:href="#b" transform="matrix(1,0,0,1,-744.7810650887576,411.67816091954023) translate(6.074999999999996 29.799999999999997)"/><use xlink:href="#e" transform="matrix(1,0,0,1,-744.7810650887576,411.67816091954023) translate(26.25 51.4)"/><path d="M-1259.76 403.68h144.85v89.2h-144.86z" stroke="#000" stroke-width="2" fill="#fff"/><use xlink:href="#b" transform="matrix(1,0,0,1,-1251.7633136094676,411.67816091954023) translate(6.074999999999996 29.799999999999997)"/><use xlink:href="#f" transform="matrix(1,0,0,1,-1251.7633136094676,411.67816091954023) translate(9.774999999999991 51.4)"/><path d="M-607.93 448.28h216.37" fill="none"/><path d="M-607.93 448.28h10.3m10.3 0h20.6m10.32 0h20.6m10.3 0h20.6m10.3 0h20.62m10.3 0h20.6m10.3 0h20.62m10.3 0h10.3" stroke="#000" stroke-width="2" fill="none"/><path d="M-391.56 448.28l-14.26 4.63v-9.26z" fill="#fff"/><path d="M-390.65 447.52v1.5l-16.17 5.27v-12.04zm-14.17 4l10.03-3.24-10.02-3.26z"/><path d="M-390.65 760.46h144.85v133.8h-144.85z" stroke="#000" stroke-width="2" fill="#fff"/><use xlink:href="#g" transform="matrix(1,0,0,1,-382.6508875739645,768.4597701149426) translate(6.024999999999999 62.6)"/><path d="M-752.78 760.46h144.85v133.8h-144.85z" stroke="#000" stroke-width="2" fill="#fff"/><use xlink:href="#h" transform="matrix(1,0,0,1,-744.7810650887576,768.4597701149426) translate(32.05 62.6)"/><path d="M-680.36 760.46V494" fill="none"/><path d="M-680.36 760.46v-9.87m0-9.88v-19.74m0-9.87v-19.73m0-9.86v-19.73m0-9.87v-19.74m0-9.87v-19.75m0-9.87v-19.74m0-9.87v-19.73m0-9.87v-19.74m0-9.87V494" stroke="#000" stroke-width="2" fill="none"/><path d="M-675.72 508.25H-685l4.64-14.26z" fill="#fff"/><path d="M-674.34 509.25h-12.03l5.33-16.38h1.37zm-9.27-2h6.5l-3.26-10.03z"/><path d="M-318.22 760.46V494" fill="none"/><path d="M-318.22 760.46v-9.87m0-9.88v-19.74m0-9.87v-19.73m0-9.86v-19.73m0-9.87v-19.74m0-9.87v-19.75m0-9.87v-19.74m0-9.87v-19.73m0-9.87v-19.74m0-9.87V494" stroke="#000" stroke-width="2" fill="none"/><path d="M-313.6 508.25h-9.26l4.64-14.26z" fill="#fff"/><path d="M-312.2 509.25h-12.04l5.33-16.38h1.36zm-9.28-2h6.5l-3.24-10.03z"/><path d="M-1042.5 760.46h144.87v133.8h-144.86z" stroke="#000" stroke-width="2" fill="#fff"/><use xlink:href="#i" transform="matrix(1,0,0,1,-1034.4852071005917,768.4597701149426) translate(46.025 62.6)"/><path d="M-970.06 760.46V494" fill="none"/><path d="M-970.06 760.46v-9.87m0-9.88v-19.74m0-9.87v-19.73m0-9.86v-19.73m0-9.87v-19.74m0-9.87v-19.75m0-9.87v-19.74m0-9.87v-19.73m0-9.87v-19.74m0-9.87V494" stroke="#000" stroke-width="2" fill="none"/><path d="M-965.42 508.25h-9.27l4.64-14.26z" fill="#fff"/><path d="M-964.05 509.25h-12.02l5.32-16.38h1.38zm-9.27-2h6.52l-3.26-10.03z"/><path d="M-349.12 759.34V660.1h-595.55v99.24" stroke="#000" stroke-width="2" fill="none"/><path d="M-348.12 760.46h-2v-1.12h2zM-933.63 742.64l-10.54 17.82h-1l-10.55-17.82 1.73-1.02 9.33 15.76 9.32-15.76z"/><path d="M-607.93 827.36h216.37" stroke="#000" stroke-width="2" fill="none"/><path d="M-391.56 827.36l-14.26 4.63v-9.28z" fill="#fff"/><path d="M-390.65 826.6v1.5l-16.17 5.27v-12.03zm-14.17 4.02l10.03-3.26-10.02-3.26z"/><path d="M-1458.93 381.38h144.85v133.8h-144.85z" stroke="#000" stroke-width="2" fill="#fff"/><use xlink:href="#j" transform="matrix(1,0,0,1,-1450.9349112426034,389.3793103448276) translate(29.574999999999996 62.6)"/><path d="M-1259.76 760.46h144.85v133.8h-144.86z" stroke="#000" stroke-width="2" fill="#fff"/><use xlink:href="#k" transform="matrix(1,0,0,1,-1251.7633136094676,768.4597701149426) translate(13.574999999999996 62.6)"/><path d="M-1187.34 894.25v156.1h869.12v-156.1" stroke="#000" stroke-width="2" fill="none"/><path d="M-313.6 908.52h-9.26l4.64-14.27z"/><path d="M-312.2 909.52h-12.04l4.96-15.27h2.1zm-9.28-2h6.5l-3.24-10.03z"/><path d="M-1187.34 894.25v156.1h506.98v-156.1" stroke="#000" stroke-width="2" fill="none"/><path d="M-675.72 908.52H-685l4.64-14.27z"/><path d="M-674.34 909.52h-12.03l4.96-15.27h2.1zm-9.27-2h6.5l-3.26-10.03z"/><path d="M-1187.34 760.46V494" fill="none"/><path d="M-1187.34 760.46v-9.87m0-9.88v-19.74m0-9.87v-19.73m0-9.86v-19.73m0-9.87v-19.74m0-9.87v-19.75m0-9.87v-19.74m0-9.87v-19.73m0-9.87v-19.74m0-9.87V494" stroke="#000" stroke-width="2" fill="none"/><path d="M-1182.7 508.25h-9.27l4.63-14.26z" fill="#fff"/><path d="M-1181.33 509.25h-12.02l5.32-16.38h1.38zm-9.27-2h6.52l-3.26-10.03z"/><path d="M-1386.5 381.38v-44.6h1068.28v66.9" stroke="#000" stroke-width="2" fill="none"/><path d="M-307.18 386.97l-9.88 16.7h-2.33l-9.87-16.7 1.73-1.02 9.32 15.76 9.32-15.75z"/><defs><path d="M59-47c-2 24 18 29 38 22v24C64 9 27 4 27-40v-127H5v-23h24l9-43h21v43h35v23H59v120" id="l"/><path d="M100-194c62-1 85 37 85 99 1 63-27 99-86 99S16-35 15-95c0-66 28-99 85-99zM99-20c44 1 53-31 53-75 0-43-8-75-51-75s-53 32-53 75 10 74 51 75" id="m"/><path d="M85-194c31 0 48 13 60 33l-1-100h32l1 261h-30c-2-10 0-23-3-31C134-8 116 4 85 4 32 4 16-35 15-94c0-66 23-100 70-100zm9 24c-40 0-46 34-46 75 0 40 6 74 45 74 42 0 51-32 51-76 0-42-9-74-50-73" id="n"/><path d="M24 0v-261h32V0H24" id="o"/><path d="M24-231v-30h32v30H24zM24 0v-190h32V0H24" id="p"/><path d="M135-143c-3-34-86-38-87 0 15 53 115 12 119 90S17 21 10-45l28-5c4 36 97 45 98 0-10-56-113-15-118-90-4-57 82-63 122-42 12 7 21 19 24 35" id="q"/><g id="a"><use transform="matrix(0.05,0,0,0.05,0,0)" xlink:href="#l"/><use transform="matrix(0.05,0,0,0.05,5,0)" xlink:href="#m"/><use transform="matrix(0.05,0,0,0.05,15,0)" xlink:href="#n"/><use transform="matrix(0.05,0,0,0.05,25,0)" xlink:href="#m"/><use transform="matrix(0.05,0,0,0.05,35,0)" xlink:href="#o"/><use transform="matrix(0.05,0,0,0.05,38.95,0)" xlink:href="#p"/><use transform="matrix(0.05,0,0,0.05,42.900000000000006,0)" xlink:href="#q"/><use transform="matrix(0.05,0,0,0.05,51.900000000000006,0)" xlink:href="#l"/></g><path d="M15-91v-56l181-69v40L49-119l147 57v40" id="r"/><path d="M25-224v-37h50v37H25zM25 0v-190h50V0H25" id="s"/><path d="M135-194c87-1 58 113 63 194h-50c-7-57 23-157-34-157-59 0-34 97-39 157H25l-1-190h47c2 12-1 28 3 38 12-26 28-41 61-42" id="t"/><path d="M115-3C79 11 28 4 28-45v-112H4v-33h27l15-45h31v45h36v33H77v99c-1 23 16 31 38 25v30" id="u"/><path d="M185-48c-13 30-37 53-82 52C43 2 14-33 14-96s30-98 90-98c62 0 83 45 84 108H66c0 31 8 55 39 56 18 0 30-7 34-22zm-45-69c5-46-57-63-70-21-2 6-4 13-4 21h74" id="v"/><path d="M135-150c-39-12-60 13-60 57V0H25l-1-190h47c2 13-1 29 3 40 6-28 27-53 61-41v41" id="w"/><path d="M121-226c-27-7-43 5-38 36h38v33H83V0H34v-157H6v-33h28c-9-59 32-81 87-68v32" id="x"/><path d="M133-34C117-15 103 5 69 4 32 3 11-16 11-54c-1-60 55-63 116-61 1-26-3-47-28-47-18 1-26 9-28 27l-52-2c7-38 36-58 82-57s74 22 75 68l1 82c-1 14 12 18 25 15v27c-30 8-71 5-69-32zm-48 3c29 0 43-24 42-57-32 0-66-3-65 30 0 17 8 27 23 27" id="y"/><path d="M190-63c-7 42-38 67-86 67-59 0-84-38-90-98-12-110 154-137 174-36l-49 2c-2-19-15-32-35-32-30 0-35 28-38 64-6 74 65 87 74 30" id="z"/><path d="M15-22v-40l146-57-146-57v-40l181 69v56" id="A"/><g id="b"><use transform="matrix(0.05,0,0,0.05,0,0)" xlink:href="#r"/><use transform="matrix(0.05,0,0,0.05,10.5,0)" xlink:href="#r"/><use transform="matrix(0.05,0,0,0.05,21,0)" xlink:href="#s"/><use transform="matrix(0.05,0,0,0.05,26,0)" xlink:href="#t"/><use transform="matrix(0.05,0,0,0.05,36.95,0)" xlink:href="#u"/><use transform="matrix(0.05,0,0,0.05,42.900000000000006,0)" xlink:href="#v"/><use transform="matrix(0.05,0,0,0.05,52.900000000000006,0)" xlink:href="#w"/><use transform="matrix(0.05,0,0,0.05,59.900000000000006,0)" xlink:href="#x"/><use transform="matrix(0.05,0,0,0.05,65.85000000000001,0)" xlink:href="#y"/><use transform="matrix(0.05,0,0,0.05,75.85000000000001,0)" xlink:href="#z"/><use transform="matrix(0.05,0,0,0.05,85.85000000000001,0)" xlink:href="#v"/><use transform="matrix(0.05,0,0,0.05,95.85000000000001,0)" xlink:href="#A"/><use transform="matrix(0.05,0,0,0.05,106.35000000000001,0)" xlink:href="#A"/></g><path d="M24 0v-248h52V0H24" id="B"/><path d="M136-208V0H84v-208H4v-40h212v40h-80" id="C"/><path d="M137-138c1-29-70-34-71-4 15 46 118 7 119 86 1 83-164 76-172 9l43-7c4 19 20 25 44 25 33 8 57-30 24-41C81-84 22-81 20-136c-2-80 154-74 161-7" id="D"/><path d="M147 0L96-86 75-71V0H25v-261h50v150l67-79h53l-66 74L201 0h-54" id="E"/><g id="c"><use transform="matrix(0.05,0,0,0.05,0,0)" xlink:href="#B"/><use transform="matrix(0.05,0,0,0.05,5,0)" xlink:href="#C"/><use transform="matrix(0.05,0,0,0.05,14.600000000000001,0)" xlink:href="#y"/><use transform="matrix(0.05,0,0,0.05,24.6,0)" xlink:href="#D"/><use transform="matrix(0.05,0,0,0.05,34.6,0)" xlink:href="#E"/></g><path d="M199 0l-22-63H83L61 0H9l90-248h61L250 0h-51zm-33-102l-36-108c-10 38-24 72-36 108h72" id="F"/><path d="M88-194c31-1 46 15 58 34l-1-101h50l1 261h-48c-2-10 0-23-3-31C134-8 116 4 84 4 32 4 16-41 15-95c0-56 19-97 73-99zm17 164c33 0 40-30 41-66 1-37-9-64-41-64s-38 30-39 65c0 43 13 65 39 65" id="G"/><path d="M128 0H69L1-190h53L99-40l48-150h52" id="H"/><g id="d"><use transform="matrix(0.05,0,0,0.05,0,0)" xlink:href="#B"/><use transform="matrix(0.05,0,0,0.05,5,0)" xlink:href="#F"/><use transform="matrix(0.05,0,0,0.05,17.950000000000003,0)" xlink:href="#G"/><use transform="matrix(0.05,0,0,0.05,28.900000000000006,0)" xlink:href="#H"/><use transform="matrix(0.05,0,0,0.05,38.900000000000006,0)" xlink:href="#y"/><use transform="matrix(0.05,0,0,0.05,48.900000000000006,0)" xlink:href="#t"/><use transform="matrix(0.05,0,0,0.05,59.85,0)" xlink:href="#z"/><use transform="matrix(0.05,0,0,0.05,69.85000000000001,0)" xlink:href="#v"/><use transform="matrix(0.05,0,0,0.05,79.85000000000001,0)" xlink:href="#G"/><use transform="matrix(0.05,0,0,0.05,90.80000000000001,0)" xlink:href="#C"/><use transform="matrix(0.05,0,0,0.05,100.40000000000002,0)" xlink:href="#y"/><use transform="matrix(0.05,0,0,0.05,110.40000000000003,0)" xlink:href="#D"/><use transform="matrix(0.05,0,0,0.05,120.40000000000003,0)" xlink:href="#E"/></g><path d="M24 0v-248h52v208h133V0H24" id="I"/><g id="e"><use transform="matrix(0.05,0,0,0.05,0,0)" xlink:href="#B"/><use transform="matrix(0.05,0,0,0.05,5,0)" xlink:href="#I"/><use transform="matrix(0.05,0,0,0.05,15.950000000000001,0)" xlink:href="#s"/><use transform="matrix(0.05,0,0,0.05,20.950000000000003,0)" xlink:href="#D"/><use transform="matrix(0.05,0,0,0.05,30.950000000000003,0)" xlink:href="#u"/><use transform="matrix(0.05,0,0,0.05,36.900000000000006,0)" xlink:href="#C"/><use transform="matrix(0.05,0,0,0.05,46.50000000000001,0)" xlink:href="#y"/><use transform="matrix(0.05,0,0,0.05,56.5,0)" xlink:href="#D"/><use transform="matrix(0.05,0,0,0.05,66.5,0)" xlink:href="#E"/></g><path d="M76-208v77h127v40H76V0H24v-248h183v40H76" id="J"/><path d="M110-194c64 0 96 36 96 99 0 64-35 99-97 99-61 0-95-36-95-99 0-62 34-99 96-99zm-1 164c35 0 45-28 45-65 0-40-10-65-43-65-34 0-45 26-45 65 0 36 10 65 43 65" id="K"/><path d="M123 10C108 53 80 86 19 72V37c35 8 53-11 59-39L3-190h52l48 148c12-52 28-100 44-148h51" id="L"/><g id="f"><use transform="matrix(0.05,0,0,0.05,0,0)" xlink:href="#B"/><use transform="matrix(0.05,0,0,0.05,5,0)" xlink:href="#C"/><use transform="matrix(0.05,0,0,0.05,14.600000000000001,0)" xlink:href="#y"/><use transform="matrix(0.05,0,0,0.05,24.6,0)" xlink:href="#D"/><use transform="matrix(0.05,0,0,0.05,34.6,0)" xlink:href="#E"/><use transform="matrix(0.05,0,0,0.05,44.6,0)" xlink:href="#J"/><use transform="matrix(0.05,0,0,0.05,55.550000000000004,0)" xlink:href="#y"/><use transform="matrix(0.05,0,0,0.05,65.55000000000001,0)" xlink:href="#z"/><use transform="matrix(0.05,0,0,0.05,75.55000000000001,0)" xlink:href="#u"/><use transform="matrix(0.05,0,0,0.05,81.50000000000001,0)" xlink:href="#K"/><use transform="matrix(0.05,0,0,0.05,92.45000000000002,0)" xlink:href="#w"/><use transform="matrix(0.05,0,0,0.05,99.45000000000002,0)" xlink:href="#L"/></g><path d="M205 0l-28-72H64L36 0H1l101-248h38L239 0h-34zm-38-99l-47-123c-12 45-31 82-46 123h93" id="M"/><path d="M108 0H70L1-190h34L89-25l56-165h34" id="N"/><path d="M141-36C126-15 110 5 73 4 37 3 15-17 15-53c-1-64 63-63 125-63 3-35-9-54-41-54-24 1-41 7-42 31l-33-3c5-37 33-52 76-52 45 0 72 20 72 64v82c-1 20 7 32 28 27v20c-31 9-61-2-59-35zM48-53c0 20 12 33 32 33 41-3 63-29 60-74-43 2-92-5-92 41" id="O"/><path d="M117-194c89-4 53 116 60 194h-32v-121c0-31-8-49-39-48C34-167 62-67 57 0H25l-1-190h30c1 10-1 24 2 32 11-22 29-35 61-36" id="P"/><path d="M96-169c-40 0-48 33-48 73s9 75 48 75c24 0 41-14 43-38l32 2c-6 37-31 61-74 61-59 0-76-41-82-99-10-93 101-131 147-64 4 7 5 14 7 22l-32 3c-4-21-16-35-41-35" id="Q"/><path d="M100-194c63 0 86 42 84 106H49c0 40 14 67 53 68 26 1 43-12 49-29l28 8c-11 28-37 45-77 45C44 4 14-33 15-96c1-61 26-98 85-98zm52 81c6-60-76-77-97-28-3 7-6 17-6 28h103" id="R"/><path d="M127-220V0H93v-220H8v-28h204v28h-85" id="S"/><path d="M143 0L79-87 56-68V0H24v-261h32v163l83-92h37l-77 82L181 0h-38" id="T"/><g id="g"><use transform="matrix(0.05,0,0,0.05,0,0)" xlink:href="#M"/><use transform="matrix(0.05,0,0,0.05,12,0)" xlink:href="#n"/><use transform="matrix(0.05,0,0,0.05,22,0)" xlink:href="#N"/><use transform="matrix(0.05,0,0,0.05,31,0)" xlink:href="#O"/><use transform="matrix(0.05,0,0,0.05,41,0)" xlink:href="#P"/><use transform="matrix(0.05,0,0,0.05,51,0)" xlink:href="#Q"/><use transform="matrix(0.05,0,0,0.05,60,0)" xlink:href="#R"/><use transform="matrix(0.05,0,0,0.05,70,0)" xlink:href="#n"/><use transform="matrix(0.05,0,0,0.05,80,0)" xlink:href="#S"/><use transform="matrix(0.05,0,0,0.05,88.95,0)" xlink:href="#O"/><use transform="matrix(0.05,0,0,0.05,98.95,0)" xlink:href="#q"/><use transform="matrix(0.05,0,0,0.05,107.95,0)" xlink:href="#T"/></g><path d="M30 0v-248h33v221h125V0H30" id="U"/><g id="h"><use transform="matrix(0.05,0,0,0.05,0,0)" xlink:href="#U"/><use transform="matrix(0.05,0,0,0.05,10,0)" xlink:href="#p"/><use transform="matrix(0.05,0,0,0.05,13.949999999999998,0)" xlink:href="#q"/><use transform="matrix(0.05,0,0,0.05,22.95,0)" xlink:href="#l"/><use transform="matrix(0.05,0,0,0.05,27.950000000000003,0)" xlink:href="#S"/><use transform="matrix(0.05,0,0,0.05,36.9,0)" xlink:href="#O"/><use transform="matrix(0.05,0,0,0.05,46.9,0)" xlink:href="#q"/><use transform="matrix(0.05,0,0,0.05,55.900000000000006,0)" xlink:href="#T"/></g><g id="i"><use transform="matrix(0.05,0,0,0.05,0,0)" xlink:href="#S"/><use transform="matrix(0.05,0,0,0.05,8.950000000000001,0)" xlink:href="#O"/><use transform="matrix(0.05,0,0,0.05,18.950000000000003,0)" xlink:href="#q"/><use transform="matrix(0.05,0,0,0.05,27.950000000000003,0)" xlink:href="#T"/></g><path d="M30-248c118-7 216 8 213 122C240-48 200 0 122 0H30v-248zM63-27c89 8 146-16 146-99s-60-101-146-95v194" id="V"/><g id="j"><use transform="matrix(0.05,0,0,0.05,0,0)" xlink:href="#S"/><use transform="matrix(0.05,0,0,0.05,8.950000000000001,0)" xlink:href="#m"/><use transform="matrix(0.05,0,0,0.05,18.950000000000003,0)" xlink:href="#V"/><use transform="matrix(0.05,0,0,0.05,31.900000000000006,0)" xlink:href="#m"/><use transform="matrix(0.05,0,0,0.05,41.900000000000006,0)" xlink:href="#U"/><use transform="matrix(0.05,0,0,0.05,51.900000000000006,0)" xlink:href="#p"/><use transform="matrix(0.05,0,0,0.05,55.85,0)" xlink:href="#q"/><use transform="matrix(0.05,0,0,0.05,64.85000000000001,0)" xlink:href="#l"/></g><path d="M33 0v-248h34V0H33" id="W"/><path d="M63-220v92h138v28H63V0H30v-248h175v28H63" id="X"/><path d="M114-163C36-179 61-72 57 0H25l-1-190h30c1 12-1 29 2 39 6-27 23-49 58-41v29" id="Y"/><path d="M179-190L93 31C79 59 56 82 12 73V49c39 6 53-20 64-50L1-190h34L92-34l54-156h33" id="Z"/><g id="k"><use transform="matrix(0.05,0,0,0.05,0,0)" xlink:href="#W"/><use transform="matrix(0.05,0,0,0.05,5,0)" xlink:href="#S"/><use transform="matrix(0.05,0,0,0.05,13.950000000000001,0)" xlink:href="#O"/><use transform="matrix(0.05,0,0,0.05,23.950000000000003,0)" xlink:href="#q"/><use transform="matrix(0.05,0,0,0.05,32.95,0)" xlink:href="#T"/><use transform="matrix(0.05,0,0,0.05,41.95,0)" xlink:href="#X"/><use transform="matrix(0.05,0,0,0.05,52.900000000000006,0)" xlink:href="#O"/><use transform="matrix(0.05,0,0,0.05,62.900000000000006,0)" xlink:href="#Q"/><use transform="matrix(0.05,0,0,0.05,71.9,0)" xlink:href="#l"/><use transform="matrix(0.05,0,0,0.05,76.9,0)" xlink:href="#m"/><use transform="matrix(0.05,0,0,0.05,86.9,0)" xlink:href="#Y"/><use transform="matrix(0.05,0,0,0.05,92.85000000000001,0)" xlink:href="#Z"/></g></defs></g></svg>