<svg xmlns="http://www.w3.org/2000/svg" xmlns:xlink="http://www.w3.org/1999/xlink" width="5152" height="3952"><g transform="translate(3392 1296)"><path d="M0 0h1760v1360H0z" fill="#fff"/><path d="M-588-194H640v1714h-3320V-220h1992zm-2092 0h2092" stroke="#000" stroke-width="2" fill="#fff"/><use xlink:href="#a" transform="matrix(1,0,0,1,-2672,-220) translate(0 16.6)"/><path d="M5 26h555v854H-940V0h900zm-945 0H5" stroke="#000" stroke-width="2" fill="#fff"/><use xlink:href="#b" transform="matrix(1,0,0,1,-932,0) translate(0 16.6)"/><path d="M-1665 26h525v854h-1420V0h852zm-895 0h895" stroke="#000" stroke-width="2" fill="#fff"/><use xlink:href="#c" transform="matrix(1,0,0,1,-2552,0) translate(0 16.6)"/><path d="M-940 986h340v494h-920V960h552zm-580 0h580" stroke="#000" stroke-width="2" fill="#fff"/><use xlink:href="#d" transform="matrix(1,0,0,1,-1512,960) translate(0 16.6)"/><path d="M-480 220h160v100h-160z" stroke="#000" stroke-width="2" fill="#fff"/><use xlink:href="#e" transform="matrix(1,0,0,1,-472,228) translate(13.574999999999996 34.8)"/><use xlink:href="#f" transform="matrix(1,0,0,1,-472,228) translate(4.6499999999999915 56.4)"/><path d="M-200 220h160v100h-160z" stroke="#000" stroke-width="2" fill="#fff"/><use xlink:href="#e" transform="matrix(1,0,0,1,-192,228) translate(13.574999999999996 34.8)"/><use xlink:href="#g" transform="matrix(1,0,0,1,-192,228) translate(9.79999999999999 56.4)"/><path d="M-320 80h160v80h-160z" stroke="#000" stroke-width="2" fill="#fff"/><use xlink:href="#e" transform="matrix(1,0,0,1,-312,88) translate(13.574999999999996 24.799999999999997)"/><use xlink:href="#h" transform="matrix(1,0,0,1,-312,88) translate(30.599999999999994 46.4)"/><path d="M-400 220V120h80" fill="none"/><path d="M-400 220v-10m0-10v-20m0-10v-20m0-10v-20m10 0h20m10 0h20m10 0h10" stroke="#000" stroke-width="2" fill="none"/><path d="M-320 120l-14.27 4.64v-9.28z" fill="#fff"/><path d="M-320 118.95v2.1l-15.27 4.96v-12zm-13.27 4.3l10.03-3.25-10.03-3.26z"/><path d="M-120 220V120h-40" fill="none"/><path d="M-120 220v-9.33m0-9.34v-18.66m0-9.34v-18.66m0-9.34v-18.66m-2.67-6.67h-18.66m-9.34 0H-160" stroke="#000" stroke-width="2" fill="none"/><path d="M-145.73 124.64L-160 120l14.27-4.64z" fill="#fff"/><path d="M-144.73 126l-15.27-4.95v-2.1l15.27-4.96zm-12.03-6l10.03 3.26v-6.52z"/><path d="M-340 420h220v120h-220z" stroke="#000" stroke-width="2" fill="#fff"/><use xlink:href="#i" transform="matrix(1,0,0,1,-332,428) translate(-0.9249999999999972 55.6)"/><path d="M-100 420h220v120h-220z" stroke="#000" stroke-width="2" fill="#fff"/><use xlink:href="#j" transform="matrix(1,0,0,1,-92,428) translate(5.025000000000006 55.6)"/><path d="M-230 420v-50h110v-50" fill="none"/><path d="M-230 420v-10m0-10v-20m0-10h20m10 0h20m10 0h20m10 0h20m0-10v-20m0-10v-10" stroke="#000" stroke-width="2" fill="none"/><path d="M-115.36 334.27h-9.28L-120 320z" fill="#fff"/><path d="M-114 335.27h-12l4.95-15.27h2.1zm-9.26-2h6.52l-3.26-10.03z"/><path d="M10 420v-50h-130v-50" fill="none"/><path d="M10 420v-9.58m0-9.6v-19.15m0-9.6V370H-7.08m-9.6 0h-19.15m-9.6 0h-19.15m-9.6 0h-19.15m-9.6 0H-120v-2.08m0-9.6v-19.15m0-9.6V320" stroke="#000" stroke-width="2" fill="none"/><path d="M-115.36 334.27h-9.28L-120 320z" fill="#fff"/><path d="M-114 335.27h-12l4.95-15.27h2.1zm-9.26-2h6.52l-3.26-10.03z"/><path d="M-480 600h160v120h-160z" stroke="#000" stroke-width="2" fill="#fff"/><use xlink:href="#k" transform="matrix(1,0,0,1,-472,608) translate(13.574999999999996 55.6)"/><path d="M-400 600V321" fill="none"/><path d="M-400 600v-10.33m0-10.34v-20.66m0-10.34v-20.66m0-10.34v-20.66m0-10.34v-20.66m0-10.34v-20.66m0-10.34v-20.66m0-10.34v-20.66m0-10.34v-20.66m0-10.34V321" stroke="#000" stroke-width="2" fill="none"/><path d="M-395.36 335.27h-9.28L-400 321z" fill="#fff"/><path d="M-394 336.27h-12l5.27-16.27h1.46zm-9.26-2h6.52l-3.26-10.03z"/><path d="M220 80h160v80H220z" stroke="#000" stroke-width="2" fill="#fff"/><use xlink:href="#e" transform="matrix(1,0,0,1,228,88) translate(13.574999999999996 24.799999999999997)"/><use xlink:href="#l" transform="matrix(1,0,0,1,228,88) translate(14.649999999999991 46.4)"/><path d="M220 540h160v120H220z" stroke="#000" stroke-width="2" fill="#fff"/><use xlink:href="#m" transform="matrix(1,0,0,1,228,548) translate(21.574999999999996 55.6)"/><path d="M300 540V161" fill="none"/><path d="M300 540v-9.72m0-9.72v-19.43m0-9.72v-19.43m0-9.7V442.8m0-9.72v-19.43m0-9.72V384.5m0-9.7v-19.44m0-9.72V326.2m0-9.7v-19.45m0-9.72V267.9m0-9.72v-19.44m0-9.7v-19.45m0-9.73v-19.43m0-9.72V161" stroke="#000" stroke-width="2" fill="none"/><path d="M304.64 175.27h-9.28L300 161z" fill="#fff"/><path d="M306 176.27h-12l5.27-16.27h1.46zm-9.26-2h6.52L300 164.24z"/><path d="M220 600h-50V270H-40" stroke="#000" stroke-width="2" fill="none"/><path d="M-22.28 260.68L-38.04 270l15.76 9.32-1 1.72-16.72-9.88v-2.32l16.7-9.88z"/><path d="M220 600h-50v200h-690V300.03h39" stroke="#000" stroke-width="2" fill="none"/><path d="M-480 299.46v1.14l-17.7 10.47-1.02-1.72 15.76-9.32-15.76-9.32 1-1.7z"/><path d="M-750 80h160v80h-160z" stroke="#000" stroke-width="2" fill="#fff"/><use xlink:href="#e" transform="matrix(1,0,0,1,-742,88) translate(13.574999999999996 24.799999999999997)"/><use xlink:href="#n" transform="matrix(1,0,0,1,-742,88) translate(-1.8250000000000028 46.4)"/><path d="M-750 340h160v120h-160z" stroke="#000" stroke-width="2" fill="#fff"/><use xlink:href="#o" transform="matrix(1,0,0,1,-742,348) translate(5.599999999999994 55.6)"/><path d="M-670 340V161" stroke="#000" stroke-width="2" fill="none"/><path d="M-665.36 175.27h-9.28L-670 161z" fill="#fff"/><path d="M-664 176.27h-12l5.27-16.27h1.46zm-9.26-2h6.52l-3.26-10.03z"/><path d="M-590 400h260v-50h100v-80h30" fill="none"/><path d="M-590 400h10.2m10.2 0h20.38m10.2 0h20.4m10.2 0h20.38m10.2 0h20.4m10.2 0h20.38m10.2 0h20.4m10.18 0h20.4m10.2 0h20.38m5.1-5.1v-20.4m0-10.2V350h6.08m10.2 0h20.4m10.18 0h20.4m10.2 0h20.38m2.16-8.04v-20.4m0-10.2V291m0-10.2V270h9.6m10.2 0h10.2" stroke="#000" stroke-width="2" fill="none"/><path d="M-200 268.84v2.32l-16.7 9.88-1.02-1.72 15.76-9.32-15.76-9.32 1-1.72z"/><path d="M-590 400h20v-99.97h89" fill="none"/><path d="M-590 400h9.95m9.95 0h.1v-19.8m0-9.96v-19.9m0-9.95v-19.9m0-9.96v-10.5h9.4m9.94 0h19.9m9.96 0h19.9m9.95 0h9.95" stroke="#000" stroke-width="2" fill="none"/><path d="M-480 299.46v1.14l-17.7 10.47-1.02-1.72 15.76-9.32-15.76-9.32 1-1.7z"/><path d="M300 660v180h-970V460" fill="none"/><path d="M300 660v10m0 10v20m0 10v20m0 10v20m0 10v20m0 10v20m0 10v10h-10m-10 0h-20m-10 0h-20m-10 0h-20m-10 0h-20m-10 0h-20m-10 0h-20m-10 0H80m-10 0H50m-10 0H20m-10 0h-20m-10 0h-20m-10 0h-20m-10 0h-20m-10 0h-20m-10 0h-20m-10 0h-20m-10 0h-20m-10 0h-20m-10 0h-20m-10 0h-20m-10 0h-20m-10 0h-20m-10 0h-20m-10 0h-20m-10 0h-20m-10 0h-20m-10 0h-20m-10 0h-20m-10 0h-20m-10 0h-20m-10 0h-20m-10 0h-20m0-10v-20m0-10v-20m0-10v-20m0-10v-20m0-10v-20m0-10v-20m0-10v-20m0-10v-20m0-10v-20m0-10v-20m0-10v-20m0-10v-20m0-10v-10" stroke="#000" stroke-width="2" fill="none"/><path d="M-658.96 476.7l-1.72 1.02-9.32-15.76-9.32 15.76-1.72-1 9.88-16.72h2.32z"/><path d="M-2080 160h160v80h-160z" stroke="#000" stroke-width="2" fill="#fff"/><use xlink:href="#e" transform="matrix(1,0,0,1,-2072,168) translate(13.574999999999996 24.799999999999997)"/><use xlink:href="#p" transform="matrix(1,0,0,1,-2072,168) translate(49.7 46.4)"/><path d="M-1360 160h160v80h-160z" stroke="#000" stroke-width="2" fill="#fff"/><use xlink:href="#e" transform="matrix(1,0,0,1,-1352,168) translate(13.574999999999996 24.799999999999997)"/><use xlink:href="#q" transform="matrix(1,0,0,1,-1352,168) translate(6.799999999999983 46.4)"/><path d="M-1760 160h160v80h-160z" stroke="#000" stroke-width="2" fill="#fff"/><use xlink:href="#e" transform="matrix(1,0,0,1,-1752,168) translate(13.574999999999996 24.799999999999997)"/><use xlink:href="#r" transform="matrix(1,0,0,1,-1752,168) translate(33.75 46.4)"/><path d="M-2320 160h160v80h-160z" stroke="#000" stroke-width="2" fill="#fff"/><use xlink:href="#e" transform="matrix(1,0,0,1,-2312,168) translate(13.574999999999996 24.799999999999997)"/><use xlink:href="#s" transform="matrix(1,0,0,1,-2312,168) translate(17.27499999999999 46.4)"/><path d="M-1600 200h239" fill="none"/><path d="M-1600 200h9.96m9.96 0h19.9m9.97 0h19.9m9.97 0h19.9m9.97 0h19.92m9.96 0h19.9m9.97 0h19.9m9.97 0h19.9m9.97 0h9.96" stroke="#000" stroke-width="2" fill="none"/><path d="M-1361 200l-14.27 4.64v-9.28z" fill="#fff"/><path d="M-1360 199.27v1.46l-16.27 5.28v-12zm-14.27 4l10.03-3.27-10.03-3.26z"/><path d="M-1360 480h160v120h-160z" stroke="#000" stroke-width="2" fill="#fff"/><use xlink:href="#t" transform="matrix(1,0,0,1,-1352,488) translate(13.524999999999999 55.6)"/><path d="M-1760 480h160v120h-160z" stroke="#000" stroke-width="2" fill="#fff"/><use xlink:href="#u" transform="matrix(1,0,0,1,-1752,488) translate(39.55 55.6)"/><path d="M-1680 480V241" fill="none"/><path d="M-1680 480v-9.96m0-9.96v-19.9m0-9.97v-19.9m0-9.97v-19.9m0-9.97v-19.92m0-9.96v-19.9m0-9.97v-19.9m0-9.97v-19.9m0-9.97V241" stroke="#000" stroke-width="2" fill="none"/><path d="M-1675.36 255.27h-9.28L-1680 241z" fill="#fff"/><path d="M-1674 256.27h-12l5.27-16.27h1.46zm-9.26-2h6.52l-3.26-10.03z"/><path d="M-1280 480V241" fill="none"/><path d="M-1280 480v-9.96m0-9.96v-19.9m0-9.97v-19.9m0-9.97v-19.9m0-9.97v-19.92m0-9.96v-19.9m0-9.97v-19.9m0-9.97v-19.9m0-9.97V241" stroke="#000" stroke-width="2" fill="none"/><path d="M-1275.36 255.27h-9.28L-1280 241z" fill="#fff"/><path d="M-1274 256.27h-12l5.27-16.27h1.46zm-9.26-2h6.52l-3.26-10.03z"/><path d="M-2080 480h160v120h-160z" stroke="#000" stroke-width="2" fill="#fff"/><use xlink:href="#v" transform="matrix(1,0,0,1,-2072,488) translate(53.525 55.6)"/><path d="M-2000 480V241" fill="none"/><path d="M-2000 480v-9.96m0-9.96v-19.9m0-9.97v-19.9m0-9.97v-19.9m0-9.97v-19.92m0-9.96v-19.9m0-9.97v-19.9m0-9.97v-19.9m0-9.97V241" stroke="#000" stroke-width="2" fill="none"/><path d="M-1995.36 255.27h-9.28L-2000 241z" fill="#fff"/><path d="M-1994 256.27h-12l5.27-16.27h1.46zm-9.26-2h6.52l-3.26-10.03z"/><path d="M-1314.13 479v-89h-657.83v89" stroke="#000" stroke-width="2" fill="none"/><path d="M-1313.13 480h-2v-1h2zM-1960.92 462.3l-10.47 17.7h-1.13l-10.47-17.7 1.72-1.02 9.32 15.76 9.32-15.76z"/><path d="M-1600 540h239" stroke="#000" stroke-width="2" fill="none"/><path d="M-1361 540l-14.27 4.64v-9.28z" fill="#fff"/><path d="M-1360 539.27v1.46l-16.27 5.28v-12zm-14.27 4l10.03-3.27-10.03-3.26z"/><path d="M-2540 140h160v120h-160z" stroke="#000" stroke-width="2" fill="#fff"/><use xlink:href="#w" transform="matrix(1,0,0,1,-2532,148) translate(37.074999999999996 55.6)"/><path d="M-1200 540h360V270h360" stroke="#000" stroke-width="2" fill="none"/><path d="M-480 268.84v2.32l-16.7 9.88-1.02-1.72 15.76-9.32-15.76-9.32 1-1.72z"/><path d="M-2320 480h160v120h-160z" stroke="#000" stroke-width="2" fill="#fff"/><use xlink:href="#x" transform="matrix(1,0,0,1,-2312,488) translate(21.074999999999996 55.6)"/><path d="M-2240 600v140h960V600" stroke="#000" stroke-width="2" fill="none"/><path d="M-1275.36 614.27h-9.28L-1280 600z"/><path d="M-1274 615.27h-12l4.95-15.27h2.1zm-9.26-2h6.52l-3.26-10.03z"/><path d="M-2240 600v140h560V600" stroke="#000" stroke-width="2" fill="none"/><path d="M-1675.36 614.27h-9.28L-1680 600z"/><path d="M-1674 615.27h-12l4.95-15.27h2.1zm-9.26-2h6.52l-3.26-10.03z"/><path d="M-2240 600v140h240V600" stroke="#000" stroke-width="2" fill="none"/><path d="M-1995.36 614.27h-9.28L-2000 600z"/><path d="M-1994 615.27h-12l4.95-15.27h2.1zm-9.26-2h6.52l-3.26-10.03z"/><path d="M-2240 480V241" fill="none"/><path d="M-2240 480v-9.96m0-9.96v-19.9m0-9.97v-19.9m0-9.97v-19.9m0-9.97v-19.92m0-9.96v-19.9m0-9.97v-19.9m0-9.97v-19.9m0-9.97V241" stroke="#000" stroke-width="2" fill="none"/><path d="M-2235.36 255.27h-9.28L-2240 241z" fill="#fff"/><path d="M-2234 256.27h-12l5.27-16.27h1.46zm-9.26-2h6.52l-3.26-10.03z"/><path d="M-2460 140v-40h1180v60" stroke="#000" stroke-width="2" fill="none"/><path d="M-1268.96 143.3l-9.88 16.7h-2.32l-9.88-16.7 1.72-1.02 9.32 15.76 9.32-15.76z"/><path d="M-2460 140v-40h780v60" fill="none"/><path d="M-2460 140v-10.1m0-10.13V100h.46m10.1 0h20.24m10.12 0h20.23m10.1 0h20.24m10.1 0h20.24m10.1 0h20.24m10.12 0h20.23m10.1 0h20.24m10.12 0h20.22m10.1 0h20.24m10.12 0h20.23m10.12 0h20.23m10.12 0h20.23m10.1 0h20.24m10.12 0h20.23m10.1 0h20.23m10.12 0h20.23m10.1 0h20.24m10.12 0h20.23m10.1 0h20.24m10.13 0h20.23m10.1 0h20.24m10.12 0h20.23m10.1 0h20.24m10.1 0h20.24m10.1 0h20.24m10.12 0h10.8v9.43m0 10.1v20.24m0 10.12V160" stroke="#000" stroke-width="2" fill="none"/><path d="M-1668.96 143.3l-9.88 16.7h-2.32l-9.88-16.7 1.72-1.02 9.32 15.76 9.32-15.76z"/><path d="M-2460 140v-40h220v60" stroke="#000" stroke-width="2" fill="none"/><path d="M-2228.96 143.3l-9.88 16.7h-2.32l-9.88-16.7 1.72-1.02 9.32 15.76 9.32-15.76z"/><path d="M-800 1160h160v120h-160z" stroke="#000" stroke-width="2" fill="#fff"/><use xlink:href="#y" transform="matrix(1,0,0,1,-792,1168) translate(31.549999999999997 55.6)"/><path d="M-1089 1066h229v354h-620v-380h372zm-391 0h391" stroke="#000" stroke-width="2" fill="#fff"/><use xlink:href="#z" transform="matrix(1,0,0,1,-1472,1040) translate(0 16.6)"/><path d="M-1420 1080h160v80h-160z" stroke="#000" stroke-width="2" fill="#fff"/><use xlink:href="#e" transform="matrix(1,0,0,1,-1412,1088) translate(13.574999999999996 24.799999999999997)"/><use xlink:href="#A" transform="matrix(1,0,0,1,-1412,1088) translate(13.599999999999994 46.4)"/><path d="M-1120 1080h200v80h-200z" stroke="#000" stroke-width="2" fill="#fff"/><use xlink:href="#e" transform="matrix(1,0,0,1,-1112,1088) translate(33.574999999999996 24.799999999999997)"/><use xlink:href="#B" transform="matrix(1,0,0,1,-1112,1088) translate(1.1750000000000114 46.4)"/><path d="M-1440 1220h200v120h-200z" stroke="#000" stroke-width="2" fill="#fff"/><use xlink:href="#C" transform="matrix(1,0,0,1,-1432,1228) translate(8.125 55.6)"/><path d="M-1120 1220h200v120h-200z" stroke="#000" stroke-width="2" fill="#fff"/><use xlink:href="#D" transform="matrix(1,0,0,1,-1112,1228) translate(10.099999999999994 55.6)"/><path d="M-1120 1280h-119" fill="none"/><path d="M-1120 1280h-9.92m-9.9 0h-19.85m-9.9 0h-19.85m-9.9 0h-19.85m-9.9 0h-9.93" stroke="#000" stroke-width="2" fill="none"/><path d="M-1221.28 1270.68l-15.76 9.32 15.76 9.32-1 1.72-17.72-10.47v-1.14l17.7-10.47z"/><path d="M-1020 1220v-60" fill="none"/><path d="M-1020 1220v-10m0-10v-20m0-10v-10" stroke="#000" stroke-width="2" fill="none"/><path d="M-1015.36 1174.27h-9.28l4.64-14.27z" fill="#fff"/><path d="M-1014 1175.27h-12l4.95-15.27h2.1zm-9.26-2h6.52l-3.26-10.03z"/><path d="M-1340 1220v-59" fill="none"/><path d="M-1340 1220v-9.83m0-9.84v-19.66m0-9.84V1161" stroke="#000" stroke-width="2" fill="none"/><path d="M-1335.36 1175.27h-9.28l4.64-14.27z" fill="#fff"/><path d="M-1334 1176.27h-12l5.27-16.27h1.46zm-9.26-2h6.52l-3.26-10.03z"/><path d="M-240 80V60h-820v140h-140" fill="none"/><path d="M-240 80V69.9m-.18-9.9h-20.18m-10.1 0h-20.17m-10.1 0h-20.17m-10.1 0h-20.17m-10.1 0h-20.17m-10.1 0h-20.17m-10.1 0h-20.18m-10.1 0h-20.17m-10.1 0h-20.17m-10.1 0h-20.17m-10.08 0h-20.18m-10.1 0h-20.17m-10.1 0h-20.17m-10.1 0h-20.17m-10.1 0h-20.17m-10.1 0h-20.17m-10.1 0h-20.18m-10.1 0h-20.17m-10.1 0h-20.18m-10.1 0h-20.17m-10.1 0h-20.17m-10.1 0h-20.17m-10.1 0h-20.17m-10.1 0h-20.18m-10.1 0h-20.17m-10.1 0h-20.17m-10.1 0h-20.17m-10.08 0h-2.52v17.66m0 10.1v20.17m0 10.1v20.17m0 10.1v20.17m0 10.1v20.17m-8.83 1.26H-1089m-10.1 0h-20.18m-10.1 0h-20.17m-10.1 0h-20.17m-10.1 0H-1200" stroke="#000" stroke-width="2" fill="none"/><path d="M-1182.28 190.68l-15.76 9.32 15.76 9.32-1 1.72-16.72-9.88v-2.32l16.7-9.88z"/><path d="M-800 1220h-40v60h-80" fill="none"/><path d="M-800 1220h-10m-10 0h-20m0 10v20m0 10v20m-10 0h-20m-10 0h-20m-10 0h-10" stroke="#000" stroke-width="2" fill="none"/><path d="M-902.28 1270.68l-15.76 9.32 15.76 9.32-1 1.72-16.72-9.88v-2.32l16.7-9.88z"/><path d="M-800 1220h-40v160h-500v-40" stroke="#000" stroke-width="2" fill="none"/><path d="M-1335.36 1354.27h-9.28l4.64-14.27z"/><path d="M-1334 1355.27h-12l4.95-15.27h2.1zm-9.26-2h6.52l-3.26-10.03z"/><defs><path d="M59-47c-2 24 18 29 38 22v24C64 9 27 4 27-40v-127H5v-23h24l9-43h21v43h35v23H59v120" id="E"/><path d="M100-194c62-1 85 37 85 99 1 63-27 99-86 99S16-35 15-95c0-66 28-99 85-99zM99-20c44 1 53-31 53-75 0-43-8-75-51-75s-53 32-53 75 10 74 51 75" id="F"/><path d="M85-194c31 0 48 13 60 33l-1-100h32l1 261h-30c-2-10 0-23-3-31C134-8 116 4 85 4 32 4 16-35 15-94c0-66 23-100 70-100zm9 24c-40 0-46 34-46 75 0 40 6 74 45 74 42 0 51-32 51-76 0-42-9-74-50-73" id="G"/><path d="M141-36C126-15 110 5 73 4 37 3 15-17 15-53c-1-64 63-63 125-63 3-35-9-54-41-54-24 1-41 7-42 31l-33-3c5-37 33-52 76-52 45 0 72 20 72 64v82c-1 20 7 32 28 27v20c-31 9-61-2-59-35zM48-53c0 20 12 33 32 33 41-3 63-29 60-74-43 2-92-5-92 41" id="H"/><path d="M210-169c-67 3-38 105-44 169h-31v-121c0-29-5-50-35-48C34-165 62-65 56 0H25l-1-190h30c1 10-1 24 2 32 10-44 99-50 107 0 11-21 27-35 58-36 85-2 47 119 55 194h-31v-121c0-29-5-49-35-48" id="I"/><path d="M84 4C-5 8 30-112 23-190h32v120c0 31 7 50 39 49 72-2 45-101 50-169h31l1 190h-30c-1-10 1-25-2-33-11 22-28 36-60 37" id="J"/><path d="M24 0v-261h32V0H24" id="K"/><path d="M100-194c63 0 86 42 84 106H49c0 40 14 67 53 68 26 1 43-12 49-29l28 8c-11 28-37 45-77 45C44 4 14-33 15-96c1-61 26-98 85-98zm52 81c6-60-76-77-97-28-3 7-6 17-6 28h103" id="L"/><g id="a"><use transform="matrix(0.05,0,0,0.05,0,0)" xlink:href="#E"/><use transform="matrix(0.05,0,0,0.05,5,0)" xlink:href="#F"/><use transform="matrix(0.05,0,0,0.05,15,0)" xlink:href="#G"/><use transform="matrix(0.05,0,0,0.05,25,0)" xlink:href="#F"/><use transform="matrix(0.05,0,0,0.05,35,0)" xlink:href="#G"/><use transform="matrix(0.05,0,0,0.05,45,0)" xlink:href="#H"/><use transform="matrix(0.05,0,0,0.05,55,0)" xlink:href="#E"/><use transform="matrix(0.05,0,0,0.05,60,0)" xlink:href="#H"/><use transform="matrix(0.05,0,0,0.05,70,0)" xlink:href="#I"/><use transform="matrix(0.05,0,0,0.05,84.95,0)" xlink:href="#F"/><use transform="matrix(0.05,0,0,0.05,94.95,0)" xlink:href="#G"/><use transform="matrix(0.05,0,0,0.05,104.95,0)" xlink:href="#J"/><use transform="matrix(0.05,0,0,0.05,114.95,0)" xlink:href="#K"/><use transform="matrix(0.05,0,0,0.05,118.9,0)" xlink:href="#L"/></g><path d="M96-169c-40 0-48 33-48 73s9 75 48 75c24 0 41-14 43-38l32 2c-6 37-31 61-74 61-59 0-76-41-82-99-10-93 101-131 147-64 4 7 5 14 7 22l-32 3c-4-21-16-35-41-35" id="M"/><path d="M177-190C167-65 218 103 67 71c-23-6-38-20-44-43l32-5c15 47 100 32 89-28v-30C133-14 115 1 83 1 29 1 15-40 15-95c0-56 16-97 71-98 29-1 48 16 59 35 1-10 0-23 2-32h30zM94-22c36 0 50-32 50-73 0-42-14-75-50-75-39 0-46 34-46 75s6 73 46 73" id="N"/><path d="M114-163C36-179 61-72 57 0H25l-1-190h30c1 12-1 29 2 39 6-27 23-49 58-41v29" id="O"/><path d="M179-190L93 31C79 59 56 82 12 73V49c39 6 53-20 64-50L1-190h34L92-34l54-156h33" id="P"/><path d="M24-231v-30h32v30H24zM24 0v-190h32V0H24" id="Q"/><path d="M135-143c-3-34-86-38-87 0 15 53 115 12 119 90S17 21 10-45l28-5c4 36 97 45 98 0-10-56-113-15-118-90-4-57 82-63 122-42 12 7 21 19 24 35" id="R"/><g id="b"><use transform="matrix(0.05,0,0,0.05,0,0)" xlink:href="#M"/><use transform="matrix(0.05,0,0,0.05,9,0)" xlink:href="#H"/><use transform="matrix(0.05,0,0,0.05,19,0)" xlink:href="#E"/><use transform="matrix(0.05,0,0,0.05,24,0)" xlink:href="#L"/><use transform="matrix(0.05,0,0,0.05,34,0)" xlink:href="#N"/><use transform="matrix(0.05,0,0,0.05,44,0)" xlink:href="#F"/><use transform="matrix(0.05,0,0,0.05,54,0)" xlink:href="#O"/><use transform="matrix(0.05,0,0,0.05,59.95,0)" xlink:href="#P"/><use transform="matrix(0.05,0,0,0.05,68.95,0)" xlink:href="#K"/><use transform="matrix(0.05,0,0,0.05,72.9,0)" xlink:href="#Q"/><use transform="matrix(0.05,0,0,0.05,76.85000000000001,0)" xlink:href="#R"/><use transform="matrix(0.05,0,0,0.05,85.85000000000001,0)" xlink:href="#E"/></g><g id="c"><use transform="matrix(0.05,0,0,0.05,0,0)" xlink:href="#E"/><use transform="matrix(0.05,0,0,0.05,5,0)" xlink:href="#F"/><use transform="matrix(0.05,0,0,0.05,15,0)" xlink:href="#G"/><use transform="matrix(0.05,0,0,0.05,25,0)" xlink:href="#F"/><use transform="matrix(0.05,0,0,0.05,35,0)" xlink:href="#K"/><use transform="matrix(0.05,0,0,0.05,38.95,0)" xlink:href="#Q"/><use transform="matrix(0.05,0,0,0.05,42.900000000000006,0)" xlink:href="#R"/><use transform="matrix(0.05,0,0,0.05,51.900000000000006,0)" xlink:href="#E"/></g><g id="d"><use transform="matrix(0.05,0,0,0.05,0,0)" xlink:href="#R"/><use transform="matrix(0.05,0,0,0.05,9,0)" xlink:href="#E"/><use transform="matrix(0.05,0,0,0.05,14,0)" xlink:href="#H"/><use transform="matrix(0.05,0,0,0.05,24,0)" xlink:href="#E"/><use transform="matrix(0.05,0,0,0.05,29,0)" xlink:href="#Q"/><use transform="matrix(0.05,0,0,0.05,32.95,0)" xlink:href="#R"/><use transform="matrix(0.05,0,0,0.05,41.95,0)" xlink:href="#E"/><use transform="matrix(0.05,0,0,0.05,46.95,0)" xlink:href="#Q"/><use transform="matrix(0.05,0,0,0.05,50.900000000000006,0)" xlink:href="#M"/><use transform="matrix(0.05,0,0,0.05,59.900000000000006,0)" xlink:href="#R"/></g><path d="M15-91v-56l181-69v40L49-119l147 57v40" id="S"/><path d="M25-224v-37h50v37H25zM25 0v-190h50V0H25" id="T"/><path d="M135-194c87-1 58 113 63 194h-50c-7-57 23-157-34-157-59 0-34 97-39 157H25l-1-190h47c2 12-1 28 3 38 12-26 28-41 61-42" id="U"/><path d="M115-3C79 11 28 4 28-45v-112H4v-33h27l15-45h31v45h36v33H77v99c-1 23 16 31 38 25v30" id="V"/><path d="M185-48c-13 30-37 53-82 52C43 2 14-33 14-96s30-98 90-98c62 0 83 45 84 108H66c0 31 8 55 39 56 18 0 30-7 34-22zm-45-69c5-46-57-63-70-21-2 6-4 13-4 21h74" id="W"/><path d="M135-150c-39-12-60 13-60 57V0H25l-1-190h47c2 13-1 29 3 40 6-28 27-53 61-41v41" id="X"/><path d="M121-226c-27-7-43 5-38 36h38v33H83V0H34v-157H6v-33h28c-9-59 32-81 87-68v32" id="Y"/><path d="M133-34C117-15 103 5 69 4 32 3 11-16 11-54c-1-60 55-63 116-61 1-26-3-47-28-47-18 1-26 9-28 27l-52-2c7-38 36-58 82-57s74 22 75 68l1 82c-1 14 12 18 25 15v27c-30 8-71 5-69-32zm-48 3c29 0 43-24 42-57-32 0-66-3-65 30 0 17 8 27 23 27" id="Z"/><path d="M190-63c-7 42-38 67-86 67-59 0-84-38-90-98-12-110 154-137 174-36l-49 2c-2-19-15-32-35-32-30 0-35 28-38 64-6 74 65 87 74 30" id="aa"/><path d="M15-22v-40l146-57-146-57v-40l181 69v56" id="ab"/><g id="e"><use transform="matrix(0.05,0,0,0.05,0,0)" xlink:href="#S"/><use transform="matrix(0.05,0,0,0.05,10.5,0)" xlink:href="#S"/><use transform="matrix(0.05,0,0,0.05,21,0)" xlink:href="#T"/><use transform="matrix(0.05,0,0,0.05,26,0)" xlink:href="#U"/><use transform="matrix(0.05,0,0,0.05,36.95,0)" xlink:href="#V"/><use transform="matrix(0.05,0,0,0.05,42.900000000000006,0)" xlink:href="#W"/><use transform="matrix(0.05,0,0,0.05,52.900000000000006,0)" xlink:href="#X"/><use transform="matrix(0.05,0,0,0.05,59.900000000000006,0)" xlink:href="#Y"/><use transform="matrix(0.05,0,0,0.05,65.85000000000001,0)" xlink:href="#Z"/><use transform="matrix(0.05,0,0,0.05,75.85000000000001,0)" xlink:href="#aa"/><use transform="matrix(0.05,0,0,0.05,85.85000000000001,0)" xlink:href="#W"/><use transform="matrix(0.05,0,0,0.05,95.85000000000001,0)" xlink:href="#ab"/><use transform="matrix(0.05,0,0,0.05,106.35000000000001,0)" xlink:href="#ab"/></g><path d="M24 0v-248h52V0H24" id="ac"/><path d="M24 0v-248h52v208h133V0H24" id="ad"/><path d="M135-194c52 0 70 43 70 98 0 56-19 99-73 100-30 1-46-15-58-35L72 0H24l1-261h50v104c11-23 29-37 60-37zM114-30c31 0 40-27 40-66 0-37-7-63-39-63s-41 28-41 65c0 36 8 64 40 64" id="ae"/><path d="M25 0v-261h50V0H25" id="af"/><path d="M67-125c0 53 21 87 73 88 37 1 54-22 65-47l45 17C233-25 199 4 140 4 58 4 20-42 15-125 8-235 124-281 211-232c18 10 29 29 36 50l-46 12c-8-25-30-41-62-41-52 0-71 34-72 86" id="ag"/><path d="M195-6C206 82 75 100 31 46c-4-6-6-13-8-21l49-6c3 16 16 24 34 25 40 0 42-37 40-79-11 22-30 35-61 35-53 0-70-43-70-97 0-56 18-96 73-97 30 0 46 14 59 34l2-30h47zm-90-29c32 0 41-27 41-63 0-35-9-62-40-62-32 0-39 29-40 63 0 36 9 62 39 62" id="ah"/><path d="M110-194c64 0 96 36 96 99 0 64-35 99-97 99-61 0-95-36-95-99 0-62 34-99 96-99zm-1 164c35 0 45-28 45-65 0-40-10-65-43-65-34 0-45 26-45 65 0 36 10 65 43 65" id="ai"/><path d="M123 10C108 53 80 86 19 72V37c35 8 53-11 59-39L3-190h52l48 148c12-52 28-100 44-148h51" id="aj"/><g id="f"><use transform="matrix(0.05,0,0,0.05,0,0)" xlink:href="#ac"/><use transform="matrix(0.05,0,0,0.05,5,0)" xlink:href="#ac"/><use transform="matrix(0.05,0,0,0.05,10,0)" xlink:href="#ad"/><use transform="matrix(0.05,0,0,0.05,20.950000000000003,0)" xlink:href="#Z"/><use transform="matrix(0.05,0,0,0.05,30.950000000000003,0)" xlink:href="#ae"/><use transform="matrix(0.05,0,0,0.05,41.900000000000006,0)" xlink:href="#W"/><use transform="matrix(0.05,0,0,0.05,51.900000000000006,0)" xlink:href="#af"/><use transform="matrix(0.05,0,0,0.05,56.900000000000006,0)" xlink:href="#ag"/><use transform="matrix(0.05,0,0,0.05,69.85000000000001,0)" xlink:href="#Z"/><use transform="matrix(0.05,0,0,0.05,79.85000000000001,0)" xlink:href="#V"/><use transform="matrix(0.05,0,0,0.05,85.80000000000001,0)" xlink:href="#W"/><use transform="matrix(0.05,0,0,0.05,95.80000000000001,0)" xlink:href="#ah"/><use transform="matrix(0.05,0,0,0.05,106.75,0)" xlink:href="#ai"/><use transform="matrix(0.05,0,0,0.05,117.7,0)" xlink:href="#X"/><use transform="matrix(0.05,0,0,0.05,124.7,0)" xlink:href="#aj"/></g><path d="M136-208V0H84v-208H4v-40h212v40h-80" id="ak"/><path d="M220-157c-53 9-28 100-34 157h-49v-107c1-27-5-49-29-50C55-147 81-57 75 0H25l-1-190h47c2 12-1 28 3 38 10-53 101-56 108 0 13-22 24-43 59-42 82 1 51 116 57 194h-49v-107c-1-25-5-48-29-50" id="al"/><g id="g"><use transform="matrix(0.05,0,0,0.05,0,0)" xlink:href="#ac"/><use transform="matrix(0.05,0,0,0.05,5,0)" xlink:href="#ak"/><use transform="matrix(0.05,0,0,0.05,15.600000000000001,0)" xlink:href="#T"/><use transform="matrix(0.05,0,0,0.05,20.6,0)" xlink:href="#al"/><use transform="matrix(0.05,0,0,0.05,36.6,0)" xlink:href="#W"/><use transform="matrix(0.05,0,0,0.05,46.6,0)" xlink:href="#ag"/><use transform="matrix(0.05,0,0,0.05,59.550000000000004,0)" xlink:href="#Z"/><use transform="matrix(0.05,0,0,0.05,69.55000000000001,0)" xlink:href="#V"/><use transform="matrix(0.05,0,0,0.05,75.50000000000001,0)" xlink:href="#W"/><use transform="matrix(0.05,0,0,0.05,85.50000000000001,0)" xlink:href="#ah"/><use transform="matrix(0.05,0,0,0.05,96.45000000000002,0)" xlink:href="#ai"/><use transform="matrix(0.05,0,0,0.05,107.40000000000003,0)" xlink:href="#X"/><use transform="matrix(0.05,0,0,0.05,114.40000000000003,0)" xlink:href="#aj"/></g><g id="h"><use transform="matrix(0.05,0,0,0.05,0,0)" xlink:href="#ac"/><use transform="matrix(0.05,0,0,0.05,5,0)" xlink:href="#ag"/><use transform="matrix(0.05,0,0,0.05,17.950000000000003,0)" xlink:href="#Z"/><use transform="matrix(0.05,0,0,0.05,27.950000000000003,0)" xlink:href="#V"/><use transform="matrix(0.05,0,0,0.05,33.900000000000006,0)" xlink:href="#W"/><use transform="matrix(0.05,0,0,0.05,43.900000000000006,0)" xlink:href="#ah"/><use transform="matrix(0.05,0,0,0.05,54.85,0)" xlink:href="#ai"/><use transform="matrix(0.05,0,0,0.05,65.80000000000001,0)" xlink:href="#X"/><use transform="matrix(0.05,0,0,0.05,72.80000000000001,0)" xlink:href="#aj"/></g><path d="M240 0l2-218c-23 76-54 145-80 218h-23L58-218 59 0H30v-248h44l77 211c21-75 51-140 76-211h43V0h-30" id="am"/><path d="M115-194c55 1 70 41 70 98S169 2 115 4C84 4 66-9 55-30l1 105H24l-1-265h31l2 30c10-21 28-34 59-34zm-8 174c40 0 45-34 45-75s-6-73-45-74c-42 0-51 32-51 76 0 43 10 73 51 73" id="an"/><path d="M30-248c118-7 216 8 213 122C240-48 200 0 122 0H30v-248zM63-27c89 8 146-16 146-99s-60-101-146-95v194" id="ao"/><path d="M127-220V0H93v-220H8v-28h204v28h-85" id="ap"/><path d="M212-179c-10-28-35-45-73-45-59 0-87 40-87 99 0 60 29 101 89 101 43 0 62-24 78-52l27 14C228-24 195 4 139 4 59 4 22-46 18-125c-6-104 99-153 187-111 19 9 31 26 39 46" id="aq"/><g id="i"><use transform="matrix(0.05,0,0,0.05,0,0)" xlink:href="#am"/><use transform="matrix(0.05,0,0,0.05,14.950000000000001,0)" xlink:href="#J"/><use transform="matrix(0.05,0,0,0.05,24.950000000000003,0)" xlink:href="#K"/><use transform="matrix(0.05,0,0,0.05,28.900000000000002,0)" xlink:href="#E"/><use transform="matrix(0.05,0,0,0.05,33.900000000000006,0)" xlink:href="#Q"/><use transform="matrix(0.05,0,0,0.05,37.85000000000001,0)" xlink:href="#an"/><use transform="matrix(0.05,0,0,0.05,47.85000000000001,0)" xlink:href="#K"/><use transform="matrix(0.05,0,0,0.05,51.80000000000001,0)" xlink:href="#L"/><use transform="matrix(0.05,0,0,0.05,61.80000000000001,0)" xlink:href="#ao"/><use transform="matrix(0.05,0,0,0.05,74.75000000000001,0)" xlink:href="#H"/><use transform="matrix(0.05,0,0,0.05,84.75000000000001,0)" xlink:href="#P"/><use transform="matrix(0.05,0,0,0.05,93.75000000000001,0)" xlink:href="#ap"/><use transform="matrix(0.05,0,0,0.05,104.05000000000001,0)" xlink:href="#Q"/><use transform="matrix(0.05,0,0,0.05,108,0)" xlink:href="#I"/><use transform="matrix(0.05,0,0,0.05,122.95,0)" xlink:href="#L"/><use transform="matrix(0.05,0,0,0.05,132.95000000000002,0)" xlink:href="#aq"/><use transform="matrix(0.05,0,0,0.05,145.9,0)" xlink:href="#H"/><use transform="matrix(0.05,0,0,0.05,155.9,0)" xlink:href="#E"/><use transform="matrix(0.05,0,0,0.05,160.9,0)" xlink:href="#L"/><use transform="matrix(0.05,0,0,0.05,170.9,0)" xlink:href="#N"/><use transform="matrix(0.05,0,0,0.05,180.9,0)" xlink:href="#F"/><use transform="matrix(0.05,0,0,0.05,190.9,0)" xlink:href="#O"/><use transform="matrix(0.05,0,0,0.05,196.85,0)" xlink:href="#P"/></g><path d="M185-189c-5-48-123-54-124 2 14 75 158 14 163 119 3 78-121 87-175 55-17-10-28-26-33-46l33-7c5 56 141 63 141-1 0-78-155-14-162-118-5-82 145-84 179-34 5 7 8 16 11 25" id="ar"/><path d="M117-194c89-4 53 116 60 194h-32v-121c0-31-8-49-39-48C34-167 62-67 57 0H25l-1-190h30c1 10-1 24 2 32 11-22 29-35 61-36" id="as"/><g id="j"><use transform="matrix(0.05,0,0,0.05,0,0)" xlink:href="#ar"/><use transform="matrix(0.05,0,0,0.05,12,0)" xlink:href="#Q"/><use transform="matrix(0.05,0,0,0.05,15.949999999999998,0)" xlink:href="#as"/><use transform="matrix(0.05,0,0,0.05,25.950000000000003,0)" xlink:href="#N"/><use transform="matrix(0.05,0,0,0.05,35.95,0)" xlink:href="#K"/><use transform="matrix(0.05,0,0,0.05,39.900000000000006,0)" xlink:href="#L"/><use transform="matrix(0.05,0,0,0.05,49.900000000000006,0)" xlink:href="#ao"/><use transform="matrix(0.05,0,0,0.05,62.85,0)" xlink:href="#H"/><use transform="matrix(0.05,0,0,0.05,72.85000000000001,0)" xlink:href="#P"/><use transform="matrix(0.05,0,0,0.05,81.85000000000001,0)" xlink:href="#ap"/><use transform="matrix(0.05,0,0,0.05,92.15,0)" xlink:href="#Q"/><use transform="matrix(0.05,0,0,0.05,96.10000000000001,0)" xlink:href="#I"/><use transform="matrix(0.05,0,0,0.05,111.05000000000001,0)" xlink:href="#L"/><use transform="matrix(0.05,0,0,0.05,121.05000000000001,0)" xlink:href="#aq"/><use transform="matrix(0.05,0,0,0.05,134,0)" xlink:href="#H"/><use transform="matrix(0.05,0,0,0.05,144,0)" xlink:href="#E"/><use transform="matrix(0.05,0,0,0.05,149,0)" xlink:href="#L"/><use transform="matrix(0.05,0,0,0.05,159,0)" xlink:href="#N"/><use transform="matrix(0.05,0,0,0.05,169,0)" xlink:href="#F"/><use transform="matrix(0.05,0,0,0.05,179,0)" xlink:href="#O"/><use transform="matrix(0.05,0,0,0.05,184.95,0)" xlink:href="#P"/></g><path d="M30 0v-248h33v221h125V0H30" id="at"/><path d="M115-194c53 0 69 39 70 98 0 66-23 100-70 100C84 3 66-7 56-30L54 0H23l1-261h32v101c10-23 28-34 59-34zm-8 174c40 0 45-34 45-75 0-40-5-75-45-74-42 0-51 32-51 76 0 43 10 73 51 73" id="au"/><g id="k"><use transform="matrix(0.05,0,0,0.05,0,0)" xlink:href="#at"/><use transform="matrix(0.05,0,0,0.05,10,0)" xlink:href="#H"/><use transform="matrix(0.05,0,0,0.05,20,0)" xlink:href="#au"/><use transform="matrix(0.05,0,0,0.05,30,0)" xlink:href="#L"/><use transform="matrix(0.05,0,0,0.05,40,0)" xlink:href="#K"/><use transform="matrix(0.05,0,0,0.05,43.95,0)" xlink:href="#aq"/><use transform="matrix(0.05,0,0,0.05,56.900000000000006,0)" xlink:href="#H"/><use transform="matrix(0.05,0,0,0.05,66.9,0)" xlink:href="#E"/><use transform="matrix(0.05,0,0,0.05,71.9,0)" xlink:href="#L"/><use transform="matrix(0.05,0,0,0.05,81.9,0)" xlink:href="#N"/><use transform="matrix(0.05,0,0,0.05,91.9,0)" xlink:href="#F"/><use transform="matrix(0.05,0,0,0.05,101.9,0)" xlink:href="#O"/><use transform="matrix(0.05,0,0,0.05,107.85000000000001,0)" xlink:href="#P"/></g><path d="M137-138c1-29-70-34-71-4 15 46 118 7 119 86 1 83-164 76-172 9l43-7c4 19 20 25 44 25 33 8 57-30 24-41C81-84 22-81 20-136c-2-80 154-74 161-7" id="av"/><g id="l"><use transform="matrix(0.05,0,0,0.05,0,0)" xlink:href="#ac"/><use transform="matrix(0.05,0,0,0.05,5,0)" xlink:href="#ag"/><use transform="matrix(0.05,0,0,0.05,17.950000000000003,0)" xlink:href="#Z"/><use transform="matrix(0.05,0,0,0.05,27.950000000000003,0)" xlink:href="#V"/><use transform="matrix(0.05,0,0,0.05,33.900000000000006,0)" xlink:href="#W"/><use transform="matrix(0.05,0,0,0.05,43.900000000000006,0)" xlink:href="#ah"/><use transform="matrix(0.05,0,0,0.05,54.85,0)" xlink:href="#ai"/><use transform="matrix(0.05,0,0,0.05,65.80000000000001,0)" xlink:href="#X"/><use transform="matrix(0.05,0,0,0.05,72.80000000000001,0)" xlink:href="#aj"/><use transform="matrix(0.05,0,0,0.05,82.80000000000001,0)" xlink:href="#ad"/><use transform="matrix(0.05,0,0,0.05,93.75000000000001,0)" xlink:href="#T"/><use transform="matrix(0.05,0,0,0.05,98.75000000000001,0)" xlink:href="#av"/><use transform="matrix(0.05,0,0,0.05,108.75,0)" xlink:href="#V"/></g><g id="m"><use transform="matrix(0.05,0,0,0.05,0,0)" xlink:href="#aq"/><use transform="matrix(0.05,0,0,0.05,12.950000000000001,0)" xlink:href="#H"/><use transform="matrix(0.05,0,0,0.05,22.950000000000003,0)" xlink:href="#E"/><use transform="matrix(0.05,0,0,0.05,27.950000000000003,0)" xlink:href="#L"/><use transform="matrix(0.05,0,0,0.05,37.95,0)" xlink:href="#N"/><use transform="matrix(0.05,0,0,0.05,47.95,0)" xlink:href="#F"/><use transform="matrix(0.05,0,0,0.05,57.95,0)" xlink:href="#O"/><use transform="matrix(0.05,0,0,0.05,63.900000000000006,0)" xlink:href="#P"/><use transform="matrix(0.05,0,0,0.05,72.9,0)" xlink:href="#at"/><use transform="matrix(0.05,0,0,0.05,82.9,0)" xlink:href="#Q"/><use transform="matrix(0.05,0,0,0.05,86.85000000000001,0)" xlink:href="#R"/><use transform="matrix(0.05,0,0,0.05,95.85000000000001,0)" xlink:href="#E"/></g><path d="M76-208v77h127v40H76V0H24v-248h183v40H76" id="aw"/><g id="n"><use transform="matrix(0.05,0,0,0.05,0,0)" xlink:href="#ac"/><use transform="matrix(0.05,0,0,0.05,5,0)" xlink:href="#ag"/><use transform="matrix(0.05,0,0,0.05,17.950000000000003,0)" xlink:href="#Z"/><use transform="matrix(0.05,0,0,0.05,27.950000000000003,0)" xlink:href="#V"/><use transform="matrix(0.05,0,0,0.05,33.900000000000006,0)" xlink:href="#W"/><use transform="matrix(0.05,0,0,0.05,43.900000000000006,0)" xlink:href="#ah"/><use transform="matrix(0.05,0,0,0.05,54.85,0)" xlink:href="#ai"/><use transform="matrix(0.05,0,0,0.05,65.80000000000001,0)" xlink:href="#X"/><use transform="matrix(0.05,0,0,0.05,72.80000000000001,0)" xlink:href="#aj"/><use transform="matrix(0.05,0,0,0.05,82.80000000000001,0)" xlink:href="#aw"/><use transform="matrix(0.05,0,0,0.05,93.75000000000001,0)" xlink:href="#Z"/><use transform="matrix(0.05,0,0,0.05,103.75,0)" xlink:href="#aa"/><use transform="matrix(0.05,0,0,0.05,113.75,0)" xlink:href="#V"/><use transform="matrix(0.05,0,0,0.05,119.7,0)" xlink:href="#ai"/><use transform="matrix(0.05,0,0,0.05,130.65,0)" xlink:href="#X"/><use transform="matrix(0.05,0,0,0.05,137.65,0)" xlink:href="#aj"/></g><path d="M63-220v92h138v28H63V0H30v-248h175v28H63" id="ax"/><g id="o"><use transform="matrix(0.05,0,0,0.05,0,0)" xlink:href="#aq"/><use transform="matrix(0.05,0,0,0.05,12.950000000000001,0)" xlink:href="#H"/><use transform="matrix(0.05,0,0,0.05,22.950000000000003,0)" xlink:href="#E"/><use transform="matrix(0.05,0,0,0.05,27.950000000000003,0)" xlink:href="#L"/><use transform="matrix(0.05,0,0,0.05,37.95,0)" xlink:href="#N"/><use transform="matrix(0.05,0,0,0.05,47.95,0)" xlink:href="#F"/><use transform="matrix(0.05,0,0,0.05,57.95,0)" xlink:href="#O"/><use transform="matrix(0.05,0,0,0.05,63.900000000000006,0)" xlink:href="#P"/><use transform="matrix(0.05,0,0,0.05,72.9,0)" xlink:href="#ax"/><use transform="matrix(0.05,0,0,0.05,83.85000000000001,0)" xlink:href="#H"/><use transform="matrix(0.05,0,0,0.05,93.85000000000001,0)" xlink:href="#M"/><use transform="matrix(0.05,0,0,0.05,102.85000000000001,0)" xlink:href="#E"/><use transform="matrix(0.05,0,0,0.05,107.85000000000001,0)" xlink:href="#F"/><use transform="matrix(0.05,0,0,0.05,117.85000000000001,0)" xlink:href="#O"/><use transform="matrix(0.05,0,0,0.05,123.80000000000001,0)" xlink:href="#P"/></g><path d="M147 0L96-86 75-71V0H25v-261h50v150l67-79h53l-66 74L201 0h-54" id="ay"/><g id="p"><use transform="matrix(0.05,0,0,0.05,0,0)" xlink:href="#ac"/><use transform="matrix(0.05,0,0,0.05,5,0)" xlink:href="#ak"/><use transform="matrix(0.05,0,0,0.05,14.600000000000001,0)" xlink:href="#Z"/><use transform="matrix(0.05,0,0,0.05,24.6,0)" xlink:href="#av"/><use transform="matrix(0.05,0,0,0.05,34.6,0)" xlink:href="#ay"/></g><path d="M199 0l-22-63H83L61 0H9l90-248h61L250 0h-51zm-33-102l-36-108c-10 38-24 72-36 108h72" id="az"/><path d="M88-194c31-1 46 15 58 34l-1-101h50l1 261h-48c-2-10 0-23-3-31C134-8 116 4 84 4 32 4 16-41 15-95c0-56 19-97 73-99zm17 164c33 0 40-30 41-66 1-37-9-64-41-64s-38 30-39 65c0 43 13 65 39 65" id="aA"/><path d="M128 0H69L1-190h53L99-40l48-150h52" id="aB"/><g id="q"><use transform="matrix(0.05,0,0,0.05,0,0)" xlink:href="#ac"/><use transform="matrix(0.05,0,0,0.05,5,0)" xlink:href="#az"/><use transform="matrix(0.05,0,0,0.05,17.950000000000003,0)" xlink:href="#aA"/><use transform="matrix(0.05,0,0,0.05,28.900000000000006,0)" xlink:href="#aB"/><use transform="matrix(0.05,0,0,0.05,38.900000000000006,0)" xlink:href="#Z"/><use transform="matrix(0.05,0,0,0.05,48.900000000000006,0)" xlink:href="#U"/><use transform="matrix(0.05,0,0,0.05,59.85,0)" xlink:href="#aa"/><use transform="matrix(0.05,0,0,0.05,69.85000000000001,0)" xlink:href="#W"/><use transform="matrix(0.05,0,0,0.05,79.85000000000001,0)" xlink:href="#aA"/><use transform="matrix(0.05,0,0,0.05,90.80000000000001,0)" xlink:href="#ak"/><use transform="matrix(0.05,0,0,0.05,100.40000000000002,0)" xlink:href="#Z"/><use transform="matrix(0.05,0,0,0.05,110.40000000000003,0)" xlink:href="#av"/><use transform="matrix(0.05,0,0,0.05,120.40000000000003,0)" xlink:href="#ay"/></g><g id="r"><use transform="matrix(0.05,0,0,0.05,0,0)" xlink:href="#ac"/><use transform="matrix(0.05,0,0,0.05,5,0)" xlink:href="#ad"/><use transform="matrix(0.05,0,0,0.05,15.950000000000001,0)" xlink:href="#T"/><use transform="matrix(0.05,0,0,0.05,20.950000000000003,0)" xlink:href="#av"/><use transform="matrix(0.05,0,0,0.05,30.950000000000003,0)" xlink:href="#V"/><use transform="matrix(0.05,0,0,0.05,36.900000000000006,0)" xlink:href="#ak"/><use transform="matrix(0.05,0,0,0.05,46.50000000000001,0)" xlink:href="#Z"/><use transform="matrix(0.05,0,0,0.05,56.5,0)" xlink:href="#av"/><use transform="matrix(0.05,0,0,0.05,66.5,0)" xlink:href="#ay"/></g><g id="s"><use transform="matrix(0.05,0,0,0.05,0,0)" xlink:href="#ac"/><use transform="matrix(0.05,0,0,0.05,5,0)" xlink:href="#ak"/><use transform="matrix(0.05,0,0,0.05,14.600000000000001,0)" xlink:href="#Z"/><use transform="matrix(0.05,0,0,0.05,24.6,0)" xlink:href="#av"/><use transform="matrix(0.05,0,0,0.05,34.6,0)" xlink:href="#ay"/><use transform="matrix(0.05,0,0,0.05,44.6,0)" xlink:href="#aw"/><use transform="matrix(0.05,0,0,0.05,55.550000000000004,0)" xlink:href="#Z"/><use transform="matrix(0.05,0,0,0.05,65.55000000000001,0)" xlink:href="#aa"/><use transform="matrix(0.05,0,0,0.05,75.55000000000001,0)" xlink:href="#V"/><use transform="matrix(0.05,0,0,0.05,81.50000000000001,0)" xlink:href="#ai"/><use transform="matrix(0.05,0,0,0.05,92.45000000000002,0)" xlink:href="#X"/><use transform="matrix(0.05,0,0,0.05,99.45000000000002,0)" xlink:href="#aj"/></g><path d="M205 0l-28-72H64L36 0H1l101-248h38L239 0h-34zm-38-99l-47-123c-12 45-31 82-46 123h93" id="aC"/><path d="M108 0H70L1-190h34L89-25l56-165h34" id="aD"/><path d="M143 0L79-87 56-68V0H24v-261h32v163l83-92h37l-77 82L181 0h-38" id="aE"/><g id="t"><use transform="matrix(0.05,0,0,0.05,0,0)" xlink:href="#aC"/><use transform="matrix(0.05,0,0,0.05,12,0)" xlink:href="#G"/><use transform="matrix(0.05,0,0,0.05,22,0)" xlink:href="#aD"/><use transform="matrix(0.05,0,0,0.05,31,0)" xlink:href="#H"/><use transform="matrix(0.05,0,0,0.05,41,0)" xlink:href="#as"/><use transform="matrix(0.05,0,0,0.05,51,0)" xlink:href="#M"/><use transform="matrix(0.05,0,0,0.05,60,0)" xlink:href="#L"/><use transform="matrix(0.05,0,0,0.05,70,0)" xlink:href="#G"/><use transform="matrix(0.05,0,0,0.05,80,0)" xlink:href="#ap"/><use transform="matrix(0.05,0,0,0.05,88.95,0)" xlink:href="#H"/><use transform="matrix(0.05,0,0,0.05,98.95,0)" xlink:href="#R"/><use transform="matrix(0.05,0,0,0.05,107.95,0)" xlink:href="#aE"/></g><g id="u"><use transform="matrix(0.05,0,0,0.05,0,0)" xlink:href="#at"/><use transform="matrix(0.05,0,0,0.05,10,0)" xlink:href="#Q"/><use transform="matrix(0.05,0,0,0.05,13.949999999999998,0)" xlink:href="#R"/><use transform="matrix(0.05,0,0,0.05,22.95,0)" xlink:href="#E"/><use transform="matrix(0.05,0,0,0.05,27.950000000000003,0)" xlink:href="#ap"/><use transform="matrix(0.05,0,0,0.05,36.9,0)" xlink:href="#H"/><use transform="matrix(0.05,0,0,0.05,46.9,0)" xlink:href="#R"/><use transform="matrix(0.05,0,0,0.05,55.900000000000006,0)" xlink:href="#aE"/></g><g id="v"><use transform="matrix(0.05,0,0,0.05,0,0)" xlink:href="#ap"/><use transform="matrix(0.05,0,0,0.05,8.950000000000001,0)" xlink:href="#H"/><use transform="matrix(0.05,0,0,0.05,18.950000000000003,0)" xlink:href="#R"/><use transform="matrix(0.05,0,0,0.05,27.950000000000003,0)" xlink:href="#aE"/></g><g id="w"><use transform="matrix(0.05,0,0,0.05,0,0)" xlink:href="#ap"/><use transform="matrix(0.05,0,0,0.05,8.950000000000001,0)" xlink:href="#F"/><use transform="matrix(0.05,0,0,0.05,18.950000000000003,0)" xlink:href="#ao"/><use transform="matrix(0.05,0,0,0.05,31.900000000000006,0)" xlink:href="#F"/><use transform="matrix(0.05,0,0,0.05,41.900000000000006,0)" xlink:href="#at"/><use transform="matrix(0.05,0,0,0.05,51.900000000000006,0)" xlink:href="#Q"/><use transform="matrix(0.05,0,0,0.05,55.85,0)" xlink:href="#R"/><use transform="matrix(0.05,0,0,0.05,64.85000000000001,0)" xlink:href="#E"/></g><path d="M33 0v-248h34V0H33" id="aF"/><g id="x"><use transform="matrix(0.05,0,0,0.05,0,0)" xlink:href="#aF"/><use transform="matrix(0.05,0,0,0.05,5,0)" xlink:href="#ap"/><use transform="matrix(0.05,0,0,0.05,13.950000000000001,0)" xlink:href="#H"/><use transform="matrix(0.05,0,0,0.05,23.950000000000003,0)" xlink:href="#R"/><use transform="matrix(0.05,0,0,0.05,32.95,0)" xlink:href="#aE"/><use transform="matrix(0.05,0,0,0.05,41.95,0)" xlink:href="#ax"/><use transform="matrix(0.05,0,0,0.05,52.900000000000006,0)" xlink:href="#H"/><use transform="matrix(0.05,0,0,0.05,62.900000000000006,0)" xlink:href="#M"/><use transform="matrix(0.05,0,0,0.05,71.9,0)" xlink:href="#E"/><use transform="matrix(0.05,0,0,0.05,76.9,0)" xlink:href="#F"/><use transform="matrix(0.05,0,0,0.05,86.9,0)" xlink:href="#O"/><use transform="matrix(0.05,0,0,0.05,92.85000000000001,0)" xlink:href="#P"/></g><g id="y"><use transform="matrix(0.05,0,0,0.05,0,0)" xlink:href="#ar"/><use transform="matrix(0.05,0,0,0.05,12,0)" xlink:href="#E"/><use transform="matrix(0.05,0,0,0.05,17,0)" xlink:href="#H"/><use transform="matrix(0.05,0,0,0.05,27,0)" xlink:href="#R"/><use transform="matrix(0.05,0,0,0.05,36,0)" xlink:href="#E"/><use transform="matrix(0.05,0,0,0.05,41,0)" xlink:href="#Q"/><use transform="matrix(0.05,0,0,0.05,44.95,0)" xlink:href="#R"/><use transform="matrix(0.05,0,0,0.05,53.95,0)" xlink:href="#E"/><use transform="matrix(0.05,0,0,0.05,58.95,0)" xlink:href="#Q"/><use transform="matrix(0.05,0,0,0.05,62.900000000000006,0)" xlink:href="#M"/><use transform="matrix(0.05,0,0,0.05,71.9,0)" xlink:href="#R"/></g><path d="M106-169C34-169 62-67 57 0H25v-261h32l-1 103c12-21 28-36 61-36 89 0 53 116 60 194h-32v-121c2-32-8-49-39-48" id="aG"/><g id="z"><use transform="matrix(0.05,0,0,0.05,0,0)" xlink:href="#H"/><use transform="matrix(0.05,0,0,0.05,10,0)" xlink:href="#M"/><use transform="matrix(0.05,0,0,0.05,19,0)" xlink:href="#aG"/><use transform="matrix(0.05,0,0,0.05,29,0)" xlink:href="#Q"/><use transform="matrix(0.05,0,0,0.05,32.95,0)" xlink:href="#L"/><use transform="matrix(0.05,0,0,0.05,42.95,0)" xlink:href="#aD"/><use transform="matrix(0.05,0,0,0.05,51.95,0)" xlink:href="#L"/><use transform="matrix(0.05,0,0,0.05,61.95,0)" xlink:href="#I"/><use transform="matrix(0.05,0,0,0.05,76.9,0)" xlink:href="#L"/><use transform="matrix(0.05,0,0,0.05,86.9,0)" xlink:href="#as"/><use transform="matrix(0.05,0,0,0.05,96.9,0)" xlink:href="#E"/><use transform="matrix(0.05,0,0,0.05,101.9,0)" xlink:href="#R"/></g><path d="M114-157C55-157 80-60 75 0H25v-261h50l-1 109c12-26 28-41 61-42 86-1 58 113 63 194h-50c-7-57 23-157-34-157" id="aH"/><g id="A"><use transform="matrix(0.05,0,0,0.05,0,0)" xlink:href="#ac"/><use transform="matrix(0.05,0,0,0.05,5,0)" xlink:href="#az"/><use transform="matrix(0.05,0,0,0.05,17.950000000000003,0)" xlink:href="#aa"/><use transform="matrix(0.05,0,0,0.05,27.950000000000003,0)" xlink:href="#aH"/><use transform="matrix(0.05,0,0,0.05,38.900000000000006,0)" xlink:href="#T"/><use transform="matrix(0.05,0,0,0.05,43.900000000000006,0)" xlink:href="#W"/><use transform="matrix(0.05,0,0,0.05,53.900000000000006,0)" xlink:href="#aB"/><use transform="matrix(0.05,0,0,0.05,63.900000000000006,0)" xlink:href="#W"/><use transform="matrix(0.05,0,0,0.05,73.9,0)" xlink:href="#al"/><use transform="matrix(0.05,0,0,0.05,89.9,0)" xlink:href="#W"/><use transform="matrix(0.05,0,0,0.05,99.9,0)" xlink:href="#U"/><use transform="matrix(0.05,0,0,0.05,110.85000000000001,0)" xlink:href="#V"/></g><g id="B"><use transform="matrix(0.05,0,0,0.05,0,0)" xlink:href="#ac"/><use transform="matrix(0.05,0,0,0.05,5,0)" xlink:href="#az"/><use transform="matrix(0.05,0,0,0.05,17.950000000000003,0)" xlink:href="#aa"/><use transform="matrix(0.05,0,0,0.05,27.950000000000003,0)" xlink:href="#aH"/><use transform="matrix(0.05,0,0,0.05,38.900000000000006,0)" xlink:href="#T"/><use transform="matrix(0.05,0,0,0.05,43.900000000000006,0)" xlink:href="#W"/><use transform="matrix(0.05,0,0,0.05,53.900000000000006,0)" xlink:href="#aB"/><use transform="matrix(0.05,0,0,0.05,63.900000000000006,0)" xlink:href="#W"/><use transform="matrix(0.05,0,0,0.05,73.9,0)" xlink:href="#al"/><use transform="matrix(0.05,0,0,0.05,89.9,0)" xlink:href="#W"/><use transform="matrix(0.05,0,0,0.05,99.9,0)" xlink:href="#U"/><use transform="matrix(0.05,0,0,0.05,110.85000000000001,0)" xlink:href="#V"/><use transform="matrix(0.05,0,0,0.05,116.80000000000001,0)" xlink:href="#aw"/><use transform="matrix(0.05,0,0,0.05,127.75,0)" xlink:href="#Z"/><use transform="matrix(0.05,0,0,0.05,137.75,0)" xlink:href="#aa"/><use transform="matrix(0.05,0,0,0.05,147.75,0)" xlink:href="#V"/><use transform="matrix(0.05,0,0,0.05,153.7,0)" xlink:href="#ai"/><use transform="matrix(0.05,0,0,0.05,164.64999999999998,0)" xlink:href="#X"/><use transform="matrix(0.05,0,0,0.05,171.64999999999998,0)" xlink:href="#aj"/></g><path d="M190 0L58-211 59 0H30v-248h39L202-35l-2-213h31V0h-41" id="aI"/><g id="C"><use transform="matrix(0.05,0,0,0.05,0,0)" xlink:href="#aI"/><use transform="matrix(0.05,0,0,0.05,12.950000000000001,0)" xlink:href="#J"/><use transform="matrix(0.05,0,0,0.05,22.950000000000003,0)" xlink:href="#I"/><use transform="matrix(0.05,0,0,0.05,37.900000000000006,0)" xlink:href="#au"/><use transform="matrix(0.05,0,0,0.05,47.900000000000006,0)" xlink:href="#L"/><use transform="matrix(0.05,0,0,0.05,57.900000000000006,0)" xlink:href="#O"/><use transform="matrix(0.05,0,0,0.05,63.85,0)" xlink:href="#aC"/><use transform="matrix(0.05,0,0,0.05,75.85000000000001,0)" xlink:href="#M"/><use transform="matrix(0.05,0,0,0.05,84.85000000000001,0)" xlink:href="#aG"/><use transform="matrix(0.05,0,0,0.05,94.85000000000001,0)" xlink:href="#Q"/><use transform="matrix(0.05,0,0,0.05,98.80000000000001,0)" xlink:href="#L"/><use transform="matrix(0.05,0,0,0.05,108.80000000000001,0)" xlink:href="#aD"/><use transform="matrix(0.05,0,0,0.05,117.80000000000001,0)" xlink:href="#L"/><use transform="matrix(0.05,0,0,0.05,127.80000000000001,0)" xlink:href="#I"/><use transform="matrix(0.05,0,0,0.05,142.75,0)" xlink:href="#L"/><use transform="matrix(0.05,0,0,0.05,152.75,0)" xlink:href="#as"/><use transform="matrix(0.05,0,0,0.05,162.75,0)" xlink:href="#E"/></g><g id="D"><use transform="matrix(0.05,0,0,0.05,0,0)" xlink:href="#aC"/><use transform="matrix(0.05,0,0,0.05,12,0)" xlink:href="#M"/><use transform="matrix(0.05,0,0,0.05,21,0)" xlink:href="#aG"/><use transform="matrix(0.05,0,0,0.05,31,0)" xlink:href="#Q"/><use transform="matrix(0.05,0,0,0.05,34.95,0)" xlink:href="#L"/><use transform="matrix(0.05,0,0,0.05,44.95,0)" xlink:href="#aD"/><use transform="matrix(0.05,0,0,0.05,53.95,0)" xlink:href="#L"/><use transform="matrix(0.05,0,0,0.05,63.95,0)" xlink:href="#I"/><use transform="matrix(0.05,0,0,0.05,78.9,0)" xlink:href="#L"/><use transform="matrix(0.05,0,0,0.05,88.9,0)" xlink:href="#as"/><use transform="matrix(0.05,0,0,0.05,98.9,0)" xlink:href="#E"/><use transform="matrix(0.05,0,0,0.05,103.9,0)" xlink:href="#ax"/><use transform="matrix(0.05,0,0,0.05,114.85000000000001,0)" xlink:href="#H"/><use transform="matrix(0.05,0,0,0.05,124.85000000000001,0)" xlink:href="#M"/><use transform="matrix(0.05,0,0,0.05,133.85000000000002,0)" xlink:href="#E"/><use transform="matrix(0.05,0,0,0.05,138.85000000000002,0)" xlink:href="#F"/><use transform="matrix(0.05,0,0,0.05,148.85000000000002,0)" xlink:href="#O"/><use transform="matrix(0.05,0,0,0.05,154.8,0)" xlink:href="#P"/></g></defs></g></svg>